<svg width="68" height="68" viewBox="0 0 68 68" fill="none" xmlns="http://www.w3.org/2000/svg">
<path d="M38.301 10.897C37.8067 10.4492 37.1565 10.213 36.4901 10.2389C35.8236 10.2648 35.1938 10.5508 34.7356 11.0356C34.2775 11.5203 34.0276 12.1653 34.0395 12.8322C34.0513 13.4991 34.324 14.1348 34.799 14.603L52.6116 31.45H9.34999C8.67369 31.45 8.02508 31.7187 7.54687 32.1969C7.06865 32.6751 6.79999 33.3237 6.79999 34C6.79999 34.6763 7.06865 35.3249 7.54687 35.8031C8.02508 36.2814 8.67369 36.55 9.34999 36.55H52.6184L34.799 53.4038C34.5474 53.6317 34.3439 53.9074 34.2003 54.215C34.0568 54.5225 33.976 54.8556 33.9628 55.1947C33.9497 55.5339 34.0043 55.8722 34.1236 56.19C34.2429 56.5077 34.4244 56.7984 34.6575 57.0451C34.8906 57.2918 35.1706 57.4895 35.4811 57.6265C35.7916 57.7636 36.1263 57.8373 36.4656 57.8433C36.805 57.8494 37.1421 57.7876 37.4573 57.6616C37.7724 57.5357 38.0593 57.3481 38.301 57.1098L60.1222 36.4718C60.664 35.9596 61.0224 35.2834 61.1422 34.5474C61.2227 34.1786 61.2204 33.7966 61.1354 33.4288C61.0112 32.7047 60.6557 32.0402 60.1222 31.535L38.301 10.897Z" fill="#8B6E5B"/>
</svg>
