<svg width="44" height="44" viewBox="0 0 44 44" fill="none" xmlns="http://www.w3.org/2000/svg">
<circle cx="22" cy="22" r="15.8684" stroke="#4A7849" stroke-width="3"/>
<path fill-rule="evenodd" clip-rule="evenodd" d="M23.5979 14.2534C23.7539 14.1233 23.934 14.0252 24.1279 13.9648C24.3218 13.9043 24.5257 13.8826 24.728 13.901C24.9303 13.9194 25.1269 13.9774 25.3068 14.0718C25.4866 14.1663 25.646 14.2952 25.776 14.4513L30.9283 20.6346C31.1791 20.9508 31.2964 21.3525 31.255 21.7539C31.2137 22.1553 31.017 22.5247 30.707 22.783C30.3969 23.0414 29.9982 23.1682 29.5959 23.1365C29.1936 23.1048 28.8196 22.917 28.5539 22.6133L23.4001 16.43C23.1378 16.115 23.0113 15.7089 23.0484 15.3007C23.0855 14.8926 23.2832 14.5159 23.5979 14.2534Z" fill="#4A7849"/>
<path fill-rule="evenodd" clip-rule="evenodd" d="M23.5979 28.9946C23.2832 28.7321 23.0855 28.3554 23.0484 27.9473C23.0113 27.5391 23.1378 27.133 23.4001 26.818L28.5539 20.6347C28.8196 20.331 29.1936 20.1432 29.5959 20.1115C29.9982 20.0798 30.3969 20.2066 30.707 20.465C31.017 20.7233 31.2137 21.0927 31.255 21.4941C31.2964 21.8955 31.1791 22.2972 30.9283 22.6134L25.776 28.7967C25.646 28.9528 25.4866 29.0817 25.3068 29.1762C25.1269 29.2706 24.9303 29.3286 24.728 29.347C24.5257 29.3654 24.3218 29.3437 24.1279 29.2833C23.934 29.2228 23.7539 29.1247 23.5979 28.9946Z" fill="#4A7849"/>
<path fill-rule="evenodd" clip-rule="evenodd" d="M28.1952 21.6241C28.1952 22.0341 28.0324 22.4273 27.7425 22.7172C27.4526 23.0071 27.0594 23.1699 26.6494 23.1699H14.2827C13.8727 23.1699 13.4795 23.0071 13.1896 22.7172C12.8997 22.4273 12.7368 22.0341 12.7368 21.6241C12.7368 21.2141 12.8997 20.8209 13.1896 20.531C13.4795 20.2411 13.8727 20.0782 14.2827 20.0782H26.6494C27.0594 20.0782 27.4526 20.2411 27.7425 20.531C28.0324 20.8209 28.1952 21.2141 28.1952 21.6241Z" fill="#4A7849"/>
</svg>
