<svg width="222" height="113" viewBox="0 0 222 113" fill="none" xmlns="http://www.w3.org/2000/svg">
<path d="M42.2405 24.8948C-8.27039 1.25614 -1.08615 93.4653 42.2405 80.7987C59.051 85.5099 71.5641 73.7738 73 68.3378C44.3043 86.6138 36.9255 16.4173 73 32.2011C69.7205 24.8948 61.4325 18.5814 42.2405 24.8948Z" fill="#E94242"/>
<path d="M41 10V30L44.3333 24.902L46 13.1373L41 10Z" fill="#8B6E5B"/>
<path d="M41.3067 29.7719C44.202 18.8942 52.8481 15.6622 61.07 17.3139C59.3281 22.9297 61.3984 26.8143 41.3067 29.7719Z" fill="#56E115"/>
<path d="M13.8857 94.1113L12.0107 94.1406C11.9277 94.1406 11.8789 94.1309 11.8643 94.1113C11.8496 94.0869 11.8423 94.0356 11.8423 93.9575V92.8296C11.8423 92.7515 11.8521 92.7051 11.8716 92.6904C11.8911 92.6758 11.9375 92.6685 12.0107 92.6685L13.8857 92.6978H23.2388L25.0991 92.6685C25.1772 92.6685 25.2261 92.6782 25.2456 92.6978C25.2603 92.7173 25.2676 92.7612 25.2676 92.8296V93.9575C25.2676 94.0405 25.2578 94.0918 25.2383 94.1113C25.2236 94.1309 25.1772 94.1406 25.0991 94.1406L23.2388 94.1113H17.5991C17.3696 94.6143 17.0669 95.127 16.6909 95.6494H21.3784L23.5098 95.6201C23.6123 95.6201 23.6636 95.6763 23.6636 95.7886L23.6343 97.4805V98.6816L23.6636 100.974C23.6636 101.072 23.6123 101.121 23.5098 101.121H22.2207C22.123 101.121 22.0742 101.072 22.0742 100.974V100.447H16.376V101.003C16.376 101.082 16.3638 101.128 16.3394 101.143C16.3247 101.157 16.2808 101.165 16.2075 101.165H14.9624C14.8843 101.165 14.8379 101.155 14.8232 101.135C14.8086 101.116 14.8013 101.072 14.8013 101.003L14.8306 98.7256V97.6855C14.1958 98.2178 13.5 98.689 12.7432 99.0991C12.543 99.1968 12.4282 99.2456 12.3989 99.2456C12.3306 99.2456 12.2402 99.1211 12.1279 98.8721C11.9424 98.457 11.7373 98.1372 11.5127 97.9126C12.5479 97.4683 13.4585 96.8872 14.2446 96.1694C14.9429 95.5396 15.4824 94.8535 15.8633 94.1113H13.8857ZM22.0742 97.0117H16.376V99.1138H22.0742V97.0117ZM22.1401 88.1055C22.6968 88.1201 23.229 88.1592 23.7368 88.2227C23.8784 88.2373 23.9492 88.2959 23.9492 88.3984C23.9492 88.4326 23.9175 88.5181 23.854 88.6548C23.8101 88.8159 23.7881 89.0674 23.7881 89.4092V90.1709L23.8247 91.3208C23.8247 91.4038 23.8125 91.4526 23.7881 91.4673C23.7686 91.4819 23.7197 91.4893 23.6416 91.4893L21.5835 91.46H15.3433L13.2778 91.4893C13.1997 91.4893 13.1533 91.4795 13.1387 91.46C13.124 91.4404 13.1167 91.394 13.1167 91.3208L13.1387 90.1709V89.4092C13.1387 88.9355 13.1094 88.501 13.0508 88.1055C13.4707 88.1152 14.0029 88.1494 14.6475 88.208C14.7793 88.2227 14.8452 88.2812 14.8452 88.3838C14.8452 88.4326 14.8306 88.4863 14.8013 88.5449C14.772 88.6084 14.7549 88.6548 14.75 88.6841C14.6963 88.8013 14.6694 89.0112 14.6694 89.314V90.1416H17.5991V89.0356C17.5991 88.3472 17.5674 87.8149 17.5039 87.439C18.1826 87.4585 18.7246 87.4951 19.1299 87.5488C19.2617 87.5635 19.3276 87.6123 19.3276 87.6953C19.3276 87.7441 19.313 87.8003 19.2837 87.8638C19.2544 87.937 19.2373 87.981 19.2324 87.9956C19.1836 88.147 19.1592 88.4863 19.1592 89.0137V90.1416H22.2354V89.3506C22.2354 88.9014 22.2036 88.4863 22.1401 88.1055ZM30.265 96.6455L28.3754 96.6748C28.2924 96.6748 28.2436 96.665 28.2289 96.6455C28.2143 96.626 28.2069 96.5796 28.2069 96.5063V95.3125C28.2069 95.2295 28.2167 95.1807 28.2362 95.166C28.2558 95.1514 28.3021 95.144 28.3754 95.144L30.265 95.1733H34.0736V93.3716H31.5834L29.5253 93.4009C29.4472 93.4009 29.4008 93.3887 29.3861 93.3643C29.3715 93.3447 29.3642 93.2959 29.3642 93.2178V92.0166C29.3642 91.9189 29.4179 91.8701 29.5253 91.8701L31.5834 91.8994H34.0736V90.1196C32.9896 90.2466 31.7079 90.3589 30.2284 90.4565C30.1308 90.4614 30.0697 90.4639 30.0453 90.4639C29.8939 90.4639 29.7963 90.4346 29.7523 90.376C29.7182 90.332 29.6742 90.2148 29.6205 90.0244C29.5033 89.6436 29.352 89.3042 29.1664 89.0063C31.0756 88.9478 32.7504 88.8184 34.1908 88.6182C35.4604 88.4424 36.5492 88.2373 37.4574 88.0029C37.8627 87.9004 38.3095 87.7441 38.7978 87.5342C39.2274 87.9199 39.5814 88.291 39.8598 88.6475C39.9525 88.75 39.9989 88.8452 39.9989 88.9331C39.9989 89.0308 39.9135 89.0796 39.7426 89.0796C39.4984 89.0991 39.2641 89.1406 39.0395 89.2041C38.0043 89.4824 36.8886 89.7119 35.6923 89.8926V91.8994H38.2411L40.2846 91.8701C40.392 91.8701 40.4457 91.9189 40.4457 92.0166V93.2178C40.4457 93.3057 40.4359 93.3594 40.4164 93.3789C40.3969 93.3936 40.3529 93.4009 40.2846 93.4009L38.2411 93.3716H35.6923V95.1733H39.4276L41.3173 95.144C41.3954 95.144 41.4418 95.1538 41.4564 95.1733C41.4711 95.1929 41.4784 95.2393 41.4784 95.3125V96.5063C41.4784 96.5845 41.4687 96.6333 41.4491 96.6528C41.4345 96.6675 41.3905 96.6748 41.3173 96.6748L39.4276 96.6455H35.6923V97.1436L35.7362 99.1797C35.7362 99.5459 35.6972 99.8242 35.619 100.015C35.5507 100.19 35.4286 100.352 35.2528 100.498C34.9354 100.747 34.081 100.872 32.6894 100.872C32.6015 100.876 32.5429 100.879 32.5136 100.879C32.3671 100.879 32.2719 100.847 32.2279 100.784C32.1938 100.73 32.1596 100.605 32.1254 100.41C32.0229 99.8975 31.8861 99.502 31.7152 99.2236C32.1742 99.2871 32.7504 99.3188 33.4438 99.3188C33.7025 99.3188 33.8759 99.2676 33.9638 99.165C34.037 99.082 34.0736 98.9478 34.0736 98.7622V96.6455H30.265ZM52.1595 90.8081C51.7835 93.5864 51.1585 95.7397 50.2845 97.2681C49.6253 98.4204 48.7732 98.9966 47.7283 98.9966C46.9715 98.9966 46.3318 98.6157 45.8094 97.854C45.3211 97.1313 45.077 96.228 45.077 95.144C45.077 93.6743 45.6409 92.373 46.7688 91.2402C48.0481 89.9609 49.6741 89.3213 51.6468 89.3213C53.5267 89.3213 54.9915 89.8779 56.0413 90.9912C56.9202 91.9287 57.3597 93.1055 57.3597 94.5215C57.3597 97.2363 55.8191 99.0576 52.7381 99.9854C52.6502 100.01 52.577 100.022 52.5184 100.022C52.3719 100.022 52.2303 99.9194 52.0936 99.7144C51.8787 99.3774 51.5296 99.0625 51.0462 98.7695C52.5892 98.4033 53.7122 97.8882 54.4153 97.2241C55.1868 96.4966 55.5726 95.5176 55.5726 94.2871C55.5726 93.2861 55.2234 92.4414 54.5252 91.7529C53.8904 91.123 53.1214 90.8081 52.2181 90.8081H52.1595ZM50.4163 90.896C49.347 91.1108 48.4925 91.5649 47.8528 92.2583C47.0716 93.1372 46.681 94.0625 46.681 95.0342C46.681 95.7227 46.8055 96.2769 47.0545 96.6968C47.2498 97.019 47.4646 97.1802 47.699 97.1802C48.1092 97.1802 48.4852 96.875 48.827 96.2646C49.1932 95.5957 49.5276 94.7363 49.8304 93.6865C50.1038 92.7344 50.2991 91.8042 50.4163 90.896ZM64.1955 88.0029C64.9328 88.1494 65.4772 88.3032 65.8288 88.4644C66.0192 88.5376 66.1145 88.6377 66.1145 88.7646C66.1145 88.8428 66.0803 88.9233 66.0119 89.0063C65.9191 89.1138 65.8288 89.3481 65.7409 89.7095C65.6042 90.3687 65.465 91.3232 65.3234 92.5732C65.2844 93.2324 65.2648 93.6572 65.2648 93.8477C65.2648 93.9795 65.2673 94.1064 65.2722 94.2285C65.6335 93.584 65.9826 92.9419 66.3195 92.3022C66.4318 92.6685 66.5881 92.9932 66.7883 93.2764C66.8469 93.3496 66.8762 93.4302 66.8762 93.5181C66.8762 93.6206 66.8273 93.7451 66.7297 93.8916C66.2609 94.7852 65.9655 95.4248 65.8435 95.8105C65.8093 95.9131 65.7824 96.0645 65.7629 96.2646C65.7629 96.3916 65.6994 96.4697 65.5725 96.499C65.3869 96.5479 64.9865 96.6089 64.3713 96.6821C64.2736 96.6968 64.2028 96.6309 64.1589 96.4844C63.861 95.6787 63.7121 94.6655 63.7121 93.4448C63.7121 92.8003 63.8317 91.5552 64.071 89.7095C64.154 89.0112 64.1955 88.4424 64.1955 88.0029ZM68.9929 88.0322C69.8376 88.0713 70.4089 88.1299 70.7067 88.208C70.9118 88.2617 71.0144 88.3545 71.0144 88.4863C71.0144 88.5205 71.0119 88.5645 71.007 88.6182C70.9826 88.7549 70.9704 88.9844 70.9704 89.3066C71.112 91.1963 71.1828 92.4854 71.1828 93.1738C71.1828 95.4688 70.802 97.2046 70.0402 98.3813C69.4543 99.3188 68.6291 100.125 67.5646 100.798C67.467 100.867 67.3669 100.901 67.2644 100.901C67.1667 100.901 67.0617 100.845 66.9494 100.732C66.5734 100.405 66.1486 100.176 65.675 100.044C66.8615 99.3848 67.7136 98.7158 68.2312 98.0371C68.7097 97.3828 69.0417 96.6821 69.2272 95.9351C69.403 95.2271 69.4909 94.3311 69.4909 93.2471C69.4909 91.958 69.4299 90.7642 69.3078 89.6655C69.2443 89.0405 69.1394 88.4961 68.9929 88.0322ZM82.8233 88.0469C83.5851 88.3545 84.1441 88.6328 84.5006 88.8818C84.6422 88.9795 84.713 89.0845 84.713 89.1968C84.713 89.2896 84.6568 89.3896 84.5445 89.4971C84.398 89.6582 84.2442 89.873 84.0831 90.1416C82.8624 92.4854 81.9957 94.0771 81.483 94.917L81.4977 94.9463C82.1178 94.4336 82.7281 94.1772 83.3287 94.1772C84.11 94.1772 84.6788 94.5068 85.0353 95.166C85.2647 95.5908 85.4259 96.2061 85.5187 97.0117C85.587 97.627 85.6847 98.0444 85.8116 98.2642C85.9435 98.4888 86.1363 98.6011 86.3902 98.6011C86.8834 98.6011 87.3546 98.3618 87.8038 97.8833C88.4728 97.1753 88.9757 96.3599 89.3126 95.437C89.5128 95.8862 89.8033 96.3013 90.1842 96.6821C90.2965 96.7798 90.3526 96.8848 90.3526 96.9971C90.3526 97.0898 90.3331 97.1753 90.294 97.2534C89.9913 97.8833 89.5616 98.5034 89.005 99.1138C88.2237 99.9536 87.3033 100.374 86.2438 100.374C85.4381 100.374 84.8546 100.12 84.4933 99.6118C84.1808 99.1675 83.9781 98.4497 83.8854 97.4585C83.817 96.6968 83.69 96.1694 83.5045 95.8765C83.358 95.6421 83.1554 95.5249 82.8966 95.5249C82.2765 95.5249 81.6466 95.9497 81.0069 96.7993C80.4796 97.5024 79.8937 98.6157 79.2491 100.139C79.1905 100.276 79.1197 100.344 79.0367 100.344C78.9977 100.344 78.9488 100.334 78.8902 100.315C78.4313 100.129 78.0455 99.9146 77.733 99.6704C77.6451 99.6118 77.6012 99.5483 77.6012 99.48C77.6012 99.4214 77.6256 99.3506 77.6744 99.2676C79.7154 95.2734 81.1803 92.2632 82.0689 90.2368C82.4742 89.3188 82.7257 88.5889 82.8233 88.0469ZM95.8848 95.1514C96.2705 95.3467 96.6562 95.5469 97.042 95.752C97.1201 95.7959 97.1592 95.8447 97.1592 95.8984C97.1592 95.9326 97.1445 95.9741 97.1152 96.0229C96.8516 96.4233 96.7197 96.8042 96.7197 97.1655C96.7197 97.6782 97.0298 98.0444 97.6499 98.2642C98.2163 98.4692 99.0928 98.5718 100.279 98.5718C101.666 98.5718 103.021 98.4277 104.344 98.1396C104.398 98.1299 104.442 98.125 104.476 98.125C104.574 98.125 104.635 98.1763 104.659 98.2788C104.776 98.7231 104.857 99.2114 104.901 99.7437C104.901 99.7583 104.901 99.7681 104.901 99.7729C104.901 99.8755 104.815 99.9414 104.645 99.9707C103.331 100.21 101.866 100.33 100.25 100.33C96.8076 100.33 95.0864 99.3188 95.0864 97.2974C95.0864 96.6919 95.3525 95.9766 95.8848 95.1514ZM96.2144 89.4824C97.313 89.7412 98.7168 89.8706 100.426 89.8706C101.349 89.8706 102.389 89.8267 103.546 89.7388C103.565 89.7388 103.58 89.7388 103.59 89.7388C103.697 89.7388 103.758 89.7949 103.773 89.9072C103.851 90.3564 103.895 90.7812 103.905 91.1816C103.905 91.377 103.819 91.4819 103.648 91.4966C102.472 91.6675 101.249 92.1631 99.979 92.9834C99.8569 93.0713 99.73 93.1152 99.5981 93.1152C99.4956 93.1152 99.3906 93.0859 99.2832 93.0273C98.9463 92.8076 98.5972 92.6465 98.2358 92.5439C99.0513 92.0117 99.7056 91.5967 100.199 91.2988C99.979 91.3281 99.6152 91.3428 99.1074 91.3428C98.1455 91.3428 97.2251 91.2573 96.3462 91.0864C96.2144 91.0571 96.1484 90.9668 96.1484 90.8154C96.1484 90.6592 96.1704 90.2148 96.2144 89.4824ZM103.714 88.7646L104.505 88.208C104.535 88.1836 104.564 88.1714 104.593 88.1714C104.632 88.1714 104.679 88.1934 104.732 88.2373C105.24 88.6328 105.714 89.1699 106.153 89.8486C106.183 89.8877 106.197 89.9243 106.197 89.9585C106.197 90.0024 106.168 90.0439 106.109 90.083L105.479 90.5518C105.436 90.5811 105.396 90.5957 105.362 90.5957C105.318 90.5957 105.272 90.564 105.223 90.5005C104.759 89.7876 104.256 89.209 103.714 88.7646ZM105.091 87.7759L105.838 87.2339C105.877 87.2095 105.912 87.1973 105.941 87.1973C105.97 87.1973 106.012 87.2192 106.065 87.2632C106.642 87.6978 107.118 88.2129 107.494 88.8086C107.523 88.8574 107.538 88.8989 107.538 88.9331C107.538 88.9868 107.508 89.0356 107.45 89.0796L106.849 89.5483C106.805 89.5776 106.764 89.5923 106.725 89.5923C106.676 89.5923 106.632 89.5605 106.593 89.4971C106.173 88.8281 105.672 88.2544 105.091 87.7759ZM114.718 87.6221C115.421 87.7344 115.99 87.876 116.424 88.0469C116.546 88.0908 116.607 88.1763 116.607 88.3032C116.607 88.396 116.573 88.4692 116.505 88.5229C116.417 88.5962 116.331 88.7158 116.248 88.8818C116.229 88.9307 116.197 89.0039 116.153 89.1016C116.065 89.3115 115.98 89.5093 115.897 89.6948C116.864 89.5825 117.774 89.4263 118.629 89.2261C118.663 89.2212 118.692 89.2188 118.717 89.2188C118.795 89.2188 118.846 89.2725 118.871 89.3799C118.958 89.7266 119.01 90.0854 119.024 90.4565C119.024 90.4761 119.024 90.4907 119.024 90.5005C119.024 90.6079 118.939 90.6738 118.768 90.6982C117.601 90.8691 116.429 91.0205 115.252 91.1523C114.759 91.9434 114.386 92.4976 114.132 92.8149L114.146 92.8442C114.62 92.5366 115.121 92.3828 115.648 92.3828C116.727 92.3828 117.335 92.9224 117.472 94.0015C118.497 93.5278 119.234 93.1763 119.683 92.9468C120.167 92.6929 120.545 92.4243 120.819 92.1411C121.283 92.6294 121.634 93.0688 121.873 93.4595C121.952 93.5815 121.991 93.6914 121.991 93.7891C121.991 93.9014 121.915 93.9722 121.764 94.0015C121.461 94.0454 121.156 94.1211 120.848 94.2285C119.378 94.7461 118.304 95.144 117.625 95.4224V97.8394C117.625 97.9907 117.53 98.0811 117.34 98.1104C117.013 98.1592 116.659 98.1836 116.278 98.1836C116.146 98.1836 116.08 98.103 116.08 97.9419C116.08 97.0825 116.085 96.4746 116.095 96.1182C115.401 96.4746 114.915 96.8237 114.637 97.1655C114.403 97.4487 114.286 97.7637 114.286 98.1104C114.286 98.7988 114.979 99.1431 116.366 99.1431C117.454 99.1431 118.7 99.043 120.101 98.8428C120.116 98.8428 120.13 98.8428 120.145 98.8428C120.243 98.8428 120.296 98.8989 120.306 99.0112C120.399 99.4263 120.445 99.8364 120.445 100.242C120.445 100.266 120.445 100.283 120.445 100.293C120.445 100.444 120.389 100.52 120.277 100.52C119.261 100.652 118.023 100.718 116.563 100.718C114.054 100.718 112.799 99.8926 112.799 98.2422C112.799 97.4756 113.077 96.7944 113.634 96.1987C114.127 95.6714 114.903 95.1343 115.963 94.5874C115.938 94.1821 115.863 93.9062 115.736 93.7598C115.619 93.6182 115.423 93.5474 115.15 93.5474C115.13 93.5474 115.101 93.5474 115.062 93.5474C114.481 93.5718 113.79 93.9331 112.989 94.6313C112.525 95.0854 112.025 95.6299 111.488 96.2646C111.414 96.3525 111.353 96.3965 111.305 96.3965C111.266 96.3965 111.212 96.3623 111.143 96.2939C110.719 95.8691 110.433 95.5396 110.287 95.3052C110.247 95.2515 110.228 95.2051 110.228 95.166C110.228 95.1123 110.262 95.0586 110.33 95.0049C111.693 93.7891 112.74 92.5488 113.473 91.2842C112.774 91.3135 111.974 91.3281 111.07 91.3281C110.958 91.3281 110.887 91.2476 110.858 91.0864C110.824 90.896 110.775 90.4834 110.711 89.8486C111.19 89.8682 111.693 89.8779 112.22 89.8779C112.855 89.8779 113.502 89.8608 114.161 89.8267C114.342 89.3823 114.491 88.9526 114.608 88.5376C114.681 88.2397 114.718 87.9346 114.718 87.6221ZM128.065 90.2002L126.146 90.2295C126.063 90.2295 126.014 90.2197 125.999 90.2002C125.985 90.1807 125.977 90.1367 125.977 90.0684V88.9697C125.977 88.8916 125.987 88.8452 126.007 88.8306C126.026 88.8159 126.073 88.8086 126.146 88.8086L128.065 88.8379H132.262L132.305 88.5962C132.369 88.1763 132.401 87.7661 132.401 87.3657C133.021 87.3999 133.558 87.4561 134.012 87.5342C134.154 87.5488 134.224 87.6074 134.224 87.71C134.224 87.7734 134.185 87.854 134.107 87.9517C134.019 88.0542 133.953 88.2349 133.909 88.4937L133.836 88.8379H136.883L138.802 88.8086C138.88 88.8086 138.929 88.8184 138.949 88.8379C138.963 88.8574 138.971 88.9014 138.971 88.9697V90.0684C138.971 90.1465 138.958 90.1929 138.934 90.2075C138.919 90.2222 138.875 90.2295 138.802 90.2295L136.883 90.2002H133.565C133.477 90.6152 133.399 90.9521 133.331 91.2109H135.169L137.103 91.1816C137.186 91.1816 137.235 91.1914 137.249 91.2109C137.264 91.2305 137.271 91.2769 137.271 91.3501L137.242 92.9614V96.3965L137.271 98.0005C137.271 98.0835 137.262 98.1348 137.242 98.1543C137.227 98.1738 137.181 98.1836 137.103 98.1836L135.169 98.1543H131.8L129.881 98.1836C129.793 98.1836 129.74 98.1714 129.72 98.147C129.705 98.1274 129.698 98.0786 129.698 98.0005L129.727 96.3965V92.9614L129.698 91.3501C129.698 91.2671 129.71 91.2183 129.735 91.2036C129.754 91.189 129.803 91.1816 129.881 91.1816L131.785 91.2109L132.005 90.2002H128.065ZM135.741 97.0264V96.1694H131.243V97.0264H135.741ZM131.243 95.0928H135.741V94.2358H131.243V95.0928ZM131.243 92.3389V93.1885H135.741V92.3389H131.243ZM126.607 91.394C127.213 91.4087 127.752 91.4429 128.226 91.4966C128.387 91.5112 128.468 91.5649 128.468 91.6577C128.468 91.7065 128.438 91.8115 128.38 91.9727C128.316 92.1045 128.284 92.5146 128.284 93.2031V99.0405H136.685L138.773 99.0112C138.851 99.0112 138.897 99.021 138.912 99.0405C138.927 99.0601 138.934 99.104 138.934 99.1724V100.271C138.934 100.344 138.924 100.388 138.905 100.403C138.89 100.422 138.846 100.432 138.773 100.432L136.685 100.403H128.284V100.93C128.284 101.008 128.272 101.055 128.248 101.069C128.228 101.084 128.179 101.091 128.101 101.091H126.856C126.778 101.091 126.732 101.082 126.717 101.062C126.702 101.042 126.695 100.999 126.695 100.93L126.724 99.3262V93.2324C126.724 92.5 126.685 91.8872 126.607 91.394ZM148.443 94.4189L146.422 94.4482C146.339 94.4482 146.29 94.4385 146.275 94.4189C146.26 94.3994 146.253 94.3555 146.253 94.2871V93.2178C146.253 93.1396 146.263 93.0933 146.282 93.0786C146.302 93.064 146.348 93.0566 146.422 93.0566L148.443 93.0859H149.747C149.776 92.8076 149.791 92.4634 149.791 92.0532C149.791 91.8188 149.786 91.5918 149.776 91.3721H148.729L146.751 91.4014C146.673 91.4014 146.627 91.3916 146.612 91.3721C146.602 91.3574 146.597 91.3135 146.597 91.2402V90.1855C146.597 90.0977 146.605 90.0464 146.619 90.0317C146.634 90.0171 146.678 90.0098 146.751 90.0098L148.56 90.0391C148.248 89.3213 147.913 88.7354 147.557 88.2812C147.523 88.2373 147.506 88.1982 147.506 88.1641C147.506 88.125 147.559 88.0859 147.667 88.0469L148.67 87.6367C148.758 87.6025 148.814 87.5854 148.839 87.5854C148.878 87.5854 148.926 87.6221 148.985 87.6953C149.327 88.1445 149.656 88.6865 149.974 89.3213C149.993 89.3652 150.003 89.4019 150.003 89.4312C150.003 89.4946 149.937 89.5532 149.805 89.6069L148.685 90.0391H150.904C151.319 89.3457 151.624 88.7769 151.82 88.3325C151.917 88.1226 152.003 87.8418 152.076 87.4902C152.554 87.5928 153.067 87.7368 153.614 87.9224C153.746 87.9712 153.812 88.042 153.812 88.1348C153.812 88.2373 153.751 88.3276 153.629 88.4058C153.531 88.4692 153.438 88.584 153.35 88.75C153.067 89.248 152.806 89.6777 152.567 90.0391H152.691L154.669 90.0098C154.747 90.0098 154.793 90.022 154.808 90.0464C154.822 90.0659 154.83 90.1123 154.83 90.1855V91.2402C154.83 91.3184 154.82 91.3647 154.8 91.3794C154.786 91.394 154.742 91.4014 154.669 91.4014L152.691 91.3721H151.292C151.273 92.1631 151.243 92.7344 151.204 93.0859H153.021L155.057 93.0566C155.135 93.0566 155.184 93.0664 155.203 93.0859C155.218 93.1055 155.225 93.1494 155.225 93.2178V94.2871C155.225 94.3604 155.216 94.4067 155.196 94.4263C155.181 94.4409 155.135 94.4482 155.057 94.4482L153.021 94.4189H151.461C152.252 95.8008 153.592 96.7456 155.482 97.2534C155.228 97.5854 155.032 97.9321 154.896 98.2935C154.798 98.5718 154.698 98.7109 154.595 98.7109C154.522 98.7109 154.412 98.6816 154.266 98.623C152.679 98.0518 151.473 97.0264 150.648 95.5469C150.125 96.7578 149.051 97.7637 147.425 98.5645C147.244 98.6523 147.125 98.6963 147.066 98.6963C147.003 98.6963 146.898 98.5718 146.751 98.3228C146.575 98.0103 146.334 97.7197 146.026 97.4512C147.125 97.0312 147.933 96.5894 148.45 96.1255C148.953 95.6763 149.305 95.1074 149.505 94.4189H148.443ZM155.87 99.0698C155.67 99.3579 155.535 99.7437 155.467 100.227C155.428 100.476 155.382 100.62 155.328 100.659C155.279 100.698 155.14 100.723 154.91 100.732C153.284 100.825 151.534 100.872 149.659 100.872C147.994 100.872 146.824 100.732 146.151 100.454C145.555 100.205 145.064 99.7583 144.678 99.1138C144.205 99.5776 143.69 100.02 143.133 100.439C142.991 100.552 142.891 100.649 142.833 100.732C142.769 100.825 142.696 100.872 142.613 100.872C142.53 100.872 142.459 100.811 142.401 100.688C142.239 100.391 142.034 99.9219 141.785 99.2822C142.2 99.082 142.496 98.9258 142.672 98.8135C143.062 98.5742 143.482 98.2544 143.931 97.854V94.5215H143.228L142.13 94.5581C142.042 94.5581 141.99 94.5459 141.976 94.5215C141.961 94.502 141.954 94.4531 141.954 94.375V93.2324C141.954 93.1543 141.964 93.1079 141.983 93.0933C142.003 93.0786 142.051 93.0713 142.13 93.0713L143.228 93.1006H144.144L145.264 93.0713C145.342 93.0713 145.391 93.0811 145.411 93.1006C145.425 93.1201 145.433 93.1641 145.433 93.2324L145.404 94.6606V97.8394C145.721 98.4546 146.136 98.8696 146.649 99.0845C147.147 99.2847 148.072 99.3848 149.425 99.3848C151.636 99.3848 153.785 99.2798 155.87 99.0698ZM143.536 87.9517C144.224 88.5962 144.849 89.3335 145.411 90.1636C145.445 90.2124 145.462 90.2515 145.462 90.2808C145.462 90.3345 145.416 90.3931 145.323 90.4565L144.481 91.1377C144.393 91.1963 144.334 91.2256 144.305 91.2256C144.256 91.2256 144.21 91.1914 144.166 91.123C143.59 90.2051 142.977 89.4287 142.327 88.7939C142.283 88.7451 142.261 88.7061 142.261 88.6768C142.261 88.6377 142.308 88.5864 142.401 88.5229L143.221 87.9736C143.304 87.915 143.365 87.8857 143.404 87.8857C143.438 87.8857 143.482 87.9077 143.536 87.9517ZM159.278 97.2681C159.337 97.2681 159.4 97.2974 159.468 97.356C160.591 98.0591 161.587 98.9746 162.457 100.103C162.525 100.195 162.559 100.271 162.559 100.33C162.559 100.403 162.51 100.483 162.413 100.571L161.497 101.348C161.39 101.44 161.319 101.487 161.285 101.487C161.207 101.487 161.138 101.438 161.08 101.34C160.264 100.159 159.317 99.2017 158.238 98.4692C158.15 98.4106 158.106 98.3618 158.106 98.3228C158.106 98.2837 158.14 98.2227 158.209 98.1396L159.051 97.3926C159.129 97.3096 159.205 97.2681 159.278 97.2681ZM182.359 89.5337V91.7017H186.006C186.216 91.7017 186.355 91.6821 186.424 91.6431C186.507 91.5942 186.583 91.5698 186.651 91.5698C186.753 91.5698 186.946 91.7261 187.229 92.0386C187.552 92.3657 187.713 92.583 187.713 92.6904C187.713 92.7734 187.674 92.854 187.596 92.9321C187.469 93.0542 187.378 93.2349 187.325 93.4741C186.954 95.0269 186.424 96.394 185.735 97.5757C186.424 98.3911 187.33 99.0967 188.453 99.6924C188.169 100.029 187.942 100.381 187.771 100.747C187.654 100.986 187.576 101.106 187.537 101.106C187.479 101.106 187.369 101.045 187.208 100.923C186.28 100.249 185.503 99.5483 184.878 98.8208C184.249 99.6362 183.528 100.361 182.718 100.996C182.562 101.128 182.457 101.194 182.403 101.194C182.349 101.194 182.249 101.084 182.103 100.864C181.912 100.571 181.683 100.305 181.414 100.066C182.459 99.3726 183.323 98.5645 184.007 97.6416C183.177 96.333 182.647 94.8071 182.417 93.064H182.344C182.32 94.3384 182.239 95.6079 182.103 96.8726C181.912 98.4937 181.492 99.8145 180.843 100.835C180.73 101.025 180.645 101.121 180.586 101.121C180.513 101.121 180.413 101.05 180.286 100.908C180.003 100.61 179.688 100.356 179.341 100.146C180.093 99.2432 180.547 97.9663 180.704 96.3159C180.826 95.2271 180.887 93.7866 180.887 91.9946L180.857 88.2446C180.857 88.1616 180.87 88.1128 180.894 88.0981C180.914 88.0835 180.962 88.0762 181.041 88.0762L182.945 88.1055H186.138L188.013 88.0762C188.116 88.0762 188.167 88.1323 188.167 88.2446V89.3945C188.167 89.5068 188.116 89.563 188.013 89.563L186.138 89.5337H182.359ZM184.849 96.272C185.318 95.3394 185.677 94.27 185.926 93.064H183.721C183.985 94.314 184.361 95.3833 184.849 96.272ZM178.162 88.0615L179.532 88.0322C179.61 88.0322 179.656 88.042 179.671 88.0615C179.686 88.0811 179.693 88.125 179.693 88.1934L179.664 90.2002V95.2319L179.693 97.2314C179.693 97.3096 179.683 97.356 179.664 97.3706C179.644 97.3853 179.6 97.3926 179.532 97.3926L178.162 97.3633H176.727L175.35 97.3926C175.267 97.3926 175.218 97.3828 175.203 97.3633C175.188 97.3438 175.181 97.2998 175.181 97.2314L175.21 95.2319V90.2002L175.181 88.1934C175.181 88.1152 175.191 88.0688 175.21 88.0542C175.23 88.0396 175.276 88.0322 175.35 88.0322L176.727 88.0615H178.162ZM178.331 96.1182V94.5581H176.558V96.1182H178.331ZM178.331 89.3213H176.558V90.7715H178.331V89.3213ZM176.558 93.3716H178.331V91.958H176.558V93.3716ZM174.412 100.403C174.998 99.7778 175.457 99.0674 175.789 98.2715C175.877 98.0908 175.943 97.8662 175.987 97.5977C176.412 97.7197 176.8 97.8662 177.151 98.0371C177.293 98.0908 177.364 98.1543 177.364 98.2275C177.364 98.3105 177.325 98.3862 177.247 98.4546C177.183 98.5181 177.107 98.6597 177.02 98.8794C176.692 99.6362 176.324 100.295 175.914 100.857C175.767 101.057 175.662 101.157 175.599 101.157C175.54 101.157 175.44 101.091 175.298 100.959C175.035 100.73 174.739 100.544 174.412 100.403ZM179.766 99.1284C179.468 99.3286 179.188 99.5605 178.924 99.8242C178.836 99.9121 178.768 99.9561 178.719 99.9561C178.65 99.9561 178.56 99.8511 178.448 99.6411C178.243 99.2603 178.023 98.7842 177.789 98.2129C177.769 98.1641 177.759 98.1274 177.759 98.103C177.759 98.0493 177.808 97.9956 177.906 97.9419L178.704 97.5684C178.782 97.5342 178.833 97.5171 178.858 97.5171C178.897 97.5171 178.936 97.5562 178.975 97.6343C179.175 98.0933 179.439 98.5913 179.766 99.1284ZM194.615 92.5879L192.542 92.6172C192.439 92.6172 192.388 92.5635 192.388 92.4561V91.46C192.388 91.3525 192.439 91.2988 192.542 91.2988L194.615 91.3281H196.768V90.3247H193.472L191.538 90.354C191.451 90.354 191.397 90.3418 191.377 90.3174C191.363 90.2979 191.355 90.2515 191.355 90.1782V89.1528C191.355 89.0845 191.368 89.043 191.392 89.0283C191.412 89.0137 191.46 89.0063 191.538 89.0063L193.472 89.0356H196.768V89.0063C196.768 88.3081 196.729 87.7832 196.651 87.4316C197.3 87.4463 197.85 87.4805 198.299 87.5342C198.45 87.5537 198.526 87.605 198.526 87.688C198.526 87.7515 198.501 87.8516 198.453 87.9883C198.394 88.1348 198.365 88.4741 198.365 89.0063V89.0356H202.019L203.975 89.0063C204.082 89.0063 204.136 89.0552 204.136 89.1528V90.1782C204.136 90.2612 204.126 90.3125 204.107 90.332C204.087 90.3467 204.043 90.354 203.975 90.354L202.019 90.3247H198.365V91.3281H200.789L202.847 91.2988C202.935 91.2988 202.986 91.3086 203.001 91.3281C203.016 91.3477 203.023 91.3916 203.023 91.46V92.4561C203.023 92.5342 203.013 92.5806 202.994 92.5952C202.974 92.6099 202.925 92.6172 202.847 92.6172L200.789 92.5879H194.615ZM201.814 93.4741L203.821 93.4448C203.934 93.4448 203.99 93.4961 203.99 93.5986L203.96 94.2505V94.7925L203.99 96.2354C203.99 96.3086 203.98 96.355 203.96 96.3745C203.946 96.3892 203.899 96.3965 203.821 96.3965H202.613C202.53 96.3965 202.481 96.3867 202.466 96.3672C202.452 96.3477 202.444 96.3037 202.444 96.2354V94.7339H193.003V96.2354C193.003 96.3135 192.994 96.3599 192.974 96.3745C192.954 96.3892 192.908 96.3965 192.835 96.3965H191.641C191.553 96.3965 191.499 96.3867 191.48 96.3672C191.465 96.3477 191.458 96.3037 191.458 96.2354L191.487 94.7925V94.3457L191.458 93.5986C191.458 93.5254 191.468 93.4814 191.487 93.4668C191.512 93.4521 191.563 93.4448 191.641 93.4448L193.633 93.4741H201.814ZM202.649 97.854C202.952 98.0054 203.311 98.1348 203.726 98.2422C203.902 98.291 204.007 98.3276 204.041 98.3521C204.085 98.3862 204.107 98.4448 204.107 98.5278C204.107 98.5718 204.1 98.6426 204.085 98.7402C204.031 99.2529 203.941 99.6436 203.814 99.9121C203.716 100.132 203.567 100.322 203.367 100.483C202.996 100.781 202.198 100.93 200.972 100.93C199.952 100.93 199.246 100.85 198.855 100.688C198.484 100.532 198.299 100.178 198.299 99.6265V96.7627C198.299 96.1963 198.269 95.6812 198.211 95.2173C198.807 95.2466 199.305 95.2808 199.705 95.3198C199.895 95.3491 199.991 95.4102 199.991 95.5029C199.991 95.6006 199.961 95.7007 199.903 95.8032C199.864 95.9058 199.844 96.1499 199.844 96.5356V98.938C199.844 99.2017 199.915 99.3604 200.057 99.4141C200.237 99.4727 200.591 99.502 201.119 99.502C201.753 99.502 202.159 99.4263 202.334 99.2749C202.53 99.1187 202.635 98.645 202.649 97.854ZM190.996 99.7876C192.569 99.5142 193.663 99.0869 194.278 98.5059C194.766 98.042 195.044 97.3901 195.113 96.5503C195.132 96.3159 195.142 96.1035 195.142 95.9131C195.142 95.6836 195.125 95.4565 195.091 95.2319C195.638 95.2612 196.158 95.3052 196.651 95.3638C196.822 95.3931 196.907 95.459 196.907 95.5615C196.907 95.6006 196.878 95.7007 196.819 95.8618C196.766 95.9839 196.714 96.2744 196.665 96.7334C196.558 97.9102 196.167 98.833 195.494 99.502C194.829 100.156 193.811 100.674 192.439 101.055C192.254 101.104 192.139 101.128 192.095 101.128C192.007 101.128 191.895 101.008 191.758 100.769C191.524 100.334 191.27 100.007 190.996 99.7876ZM209.375 97.1655C210.02 97.1655 210.557 97.4023 210.987 97.876C211.363 98.2861 211.551 98.7695 211.551 99.3262C211.551 99.9707 211.311 100.505 210.833 100.93C210.418 101.301 209.932 101.487 209.375 101.487C208.731 101.487 208.194 101.25 207.764 100.776C207.388 100.366 207.2 99.8828 207.2 99.3262C207.2 98.6816 207.439 98.147 207.918 97.7222C208.333 97.3511 208.819 97.1655 209.375 97.1655ZM209.375 98.0811C208.999 98.0811 208.689 98.2153 208.445 98.4839C208.235 98.7183 208.13 98.999 208.13 99.3262C208.13 99.7021 208.264 100.012 208.533 100.256C208.767 100.466 209.048 100.571 209.375 100.571C209.751 100.571 210.061 100.437 210.305 100.168C210.515 99.9341 210.62 99.6533 210.62 99.3262C210.62 98.9502 210.486 98.6401 210.218 98.396C209.983 98.186 209.702 98.0811 209.375 98.0811Z" fill="white"/>
<path d="M79.8965 37.8926C81.0293 37.9219 82.0693 37.9902 83.0166 38.0977C83.3389 38.1367 83.5 38.2393 83.5 38.4053C83.5 38.5127 83.4268 38.7324 83.2803 39.0645C83.1631 39.3477 83.1045 40.3584 83.1045 42.0967V44.0742H85.2578L88.8906 44.0156C89.1152 44.0156 89.2275 44.1133 89.2275 44.3086V46.5352C89.2275 46.6914 89.2031 46.7842 89.1543 46.8135C89.125 46.8428 89.0371 46.8574 88.8906 46.8574L85.2578 46.7988H83.6465C85.1406 50.6953 87.3574 54.1182 90.2969 57.0674C89.7598 57.7998 89.3008 58.6152 88.9199 59.5137C88.7734 59.8359 88.6562 59.9971 88.5684 59.9971C88.4512 59.9971 88.2803 59.8555 88.0557 59.5723C85.8584 56.8086 84.1787 53.8838 83.0166 50.7979C83.0264 54.0693 83.0654 57.4873 83.1338 61.0518C83.1533 61.6963 83.1777 62.6973 83.207 64.0547C83.2168 64.6211 83.2217 64.9531 83.2217 65.0508C83.2217 65.207 83.2021 65.2998 83.1631 65.3291C83.124 65.3584 83.0361 65.373 82.8994 65.373H80.3359C80.1797 65.373 80.0869 65.3535 80.0576 65.3145C80.0283 65.2754 80.0137 65.1875 80.0137 65.0508C80.0137 64.9336 80.0283 64.1865 80.0576 62.8096C80.1357 58.5615 80.1895 54.7041 80.2188 51.2373C78.9785 54.5479 77.1816 57.5605 74.8281 60.2754C74.6035 60.5586 74.4424 60.7002 74.3447 60.7002C74.2275 60.7002 74.0566 60.5195 73.832 60.1582C73.4414 59.4844 72.9629 58.8643 72.3965 58.2979C75.668 55.1826 78.0752 51.3496 79.6182 46.7988L76.0586 46.8574C75.8926 46.8574 75.7949 46.8379 75.7656 46.7988C75.7363 46.7598 75.7217 46.6719 75.7217 46.5352V44.3086C75.7217 44.1133 75.834 44.0156 76.0586 44.0156L79.6475 44.0742H80.1309V42.1553C80.1309 40.3389 80.0527 38.918 79.8965 37.8926ZM67.5918 37.8926C68.6074 37.9219 69.6572 37.9902 70.7412 38.0977C71.0635 38.1367 71.2246 38.2393 71.2246 38.4053C71.2246 38.5615 71.166 38.7812 71.0488 39.0645C70.8828 39.3867 70.7998 40.3975 70.7998 42.0967V44.0742H70.9756L74.3154 44.0156C74.5303 44.0156 74.6377 44.1133 74.6377 44.3086V46.5352C74.6377 46.6914 74.6182 46.7842 74.5791 46.8135C74.54 46.8428 74.4521 46.8574 74.3154 46.8574L71.1953 46.7988C71.957 48.4785 73.2852 50.3193 75.1797 52.3213C74.6719 52.9756 74.2617 53.6738 73.9492 54.416C73.8125 54.7578 73.6953 54.9287 73.5977 54.9287C73.4902 54.9287 73.3389 54.7871 73.1436 54.5039C72.1768 53.1074 71.3662 51.6621 70.7119 50.168C70.7217 53.6055 70.7607 57.1797 70.8291 60.8906C70.8486 61.6133 70.873 62.6582 70.9023 64.0254C70.9121 64.6113 70.917 64.9531 70.917 65.0508C70.917 65.207 70.8975 65.2998 70.8584 65.3291C70.8193 65.3584 70.7314 65.373 70.5947 65.373H68.0459C67.8799 65.373 67.7822 65.3535 67.7529 65.3145C67.7236 65.2754 67.709 65.1875 67.709 65.0508C67.709 64.9727 67.7236 64.2012 67.7529 62.7363C67.8506 58.4395 67.9092 54.46 67.9287 50.7979C66.9912 53.7959 65.6289 56.5742 63.8418 59.1328C63.666 59.4355 63.5049 59.5869 63.3584 59.5869C63.251 59.5869 63.1436 59.416 63.0361 59.0742C62.7822 58.1855 62.4111 57.3555 61.9229 56.584C64.2471 53.8105 66.0391 50.5488 67.2988 46.7988H66.4199L63.0947 46.8574C62.9385 46.8574 62.8408 46.8379 62.8018 46.7988C62.7725 46.7598 62.7578 46.6719 62.7578 46.5352V44.3086C62.7578 44.1133 62.8701 44.0156 63.0947 44.0156L66.4199 44.0742H67.8262V42.1553C67.8262 40.3682 67.748 38.9473 67.5918 37.8926ZM97.2402 46.8574L93.4023 46.916C93.2461 46.916 93.1533 46.8965 93.124 46.8574C93.0947 46.8184 93.0801 46.7305 93.0801 46.5938V44.5137C93.0801 44.3184 93.1875 44.2207 93.4023 44.2207L97.2402 44.2793H104.301V42.1553C102.338 42.3018 100.077 42.4092 97.5186 42.4775C97.3135 42.4873 97.1816 42.4922 97.123 42.4922C96.8398 42.4922 96.6445 42.4336 96.5371 42.3164C96.4785 42.248 96.3662 42.0332 96.2002 41.6719C95.8779 40.9688 95.5459 40.417 95.2041 40.0166C98.2705 39.9971 101.542 39.8359 105.019 39.5332C106.991 39.3477 108.881 39.0791 110.688 38.7275C111.684 38.542 112.553 38.3223 113.295 38.0684C114.223 38.6445 115.033 39.2256 115.727 39.8115C115.922 40.0068 116.02 40.207 116.02 40.4121C116.02 40.6465 115.81 40.7637 115.39 40.7637C114.794 40.7637 114.252 40.8174 113.764 40.9248C112.406 41.208 110.277 41.5156 107.377 41.8477V44.2793H114.73L118.568 44.2207C118.793 44.2207 118.905 44.3184 118.905 44.5137V46.5938C118.905 46.75 118.886 46.8428 118.847 46.8721C118.808 46.9014 118.715 46.916 118.568 46.916L114.73 46.8574H109.662C112.191 48.8594 115.614 50.4072 119.931 51.501C119.491 52.0576 119.091 52.7021 118.729 53.4346C118.466 53.9717 118.256 54.2402 118.1 54.2402C118.021 54.2402 117.792 54.1719 117.411 54.0352C116.522 53.7227 115.59 53.3369 114.613 52.8779V52.9512L114.555 56.2764V59.3965L114.613 64.8896C114.613 65.0264 114.589 65.1094 114.54 65.1387C114.501 65.168 114.403 65.1826 114.247 65.1826H111.83C111.605 65.1826 111.493 65.085 111.493 64.8896V63.8936H100.478V65.0361C100.478 65.2314 100.37 65.3291 100.155 65.3291H97.7236C97.5088 65.3291 97.4014 65.2314 97.4014 65.0361L97.46 59.4844V56.7598L97.3867 53.0098C96.5078 53.4492 95.5898 53.8398 94.6328 54.1816C94.252 54.3184 94.0127 54.3867 93.915 54.3867C93.7686 54.3867 93.5684 54.1377 93.3145 53.6396C92.9043 52.8877 92.4941 52.3066 92.084 51.8965C96.2246 50.7441 99.5254 49.0645 101.986 46.8574H97.2402ZM98.1191 52.6436L101.708 52.6729H110.263C112.226 52.6729 113.485 52.6533 114.042 52.6143C111.269 51.2275 109.027 49.6064 107.318 47.751L107.45 51.6182C107.45 51.7842 107.431 51.8818 107.392 51.9111C107.353 51.9404 107.26 51.9551 107.113 51.9551H104.535C104.33 51.9551 104.228 51.8428 104.228 51.6182C104.228 51.4814 104.247 50.915 104.286 49.9189C104.325 48.9912 104.35 48.2783 104.359 47.7803C102.68 49.7236 100.6 51.3447 98.1191 52.6436ZM100.478 61.4619H111.493V59.3672H100.478V61.4619ZM100.478 55.1045V56.9941H111.493V55.1045H100.478ZM126.771 55.9688L123.021 56.0273C122.846 56.0273 122.738 56.0078 122.699 55.9688C122.67 55.9297 122.655 55.832 122.655 55.6758V53.5371C122.655 53.3809 122.68 53.2881 122.729 53.2588C122.768 53.2295 122.865 53.2148 123.021 53.2148L126.771 53.2734H134.242V51.0908H130.697L126.552 51.1494C126.396 51.1494 126.303 51.1299 126.273 51.0908C126.244 51.0518 126.229 50.9639 126.229 50.8271L126.288 47.8535V42.5068L126.229 39.5186C126.229 39.3525 126.249 39.2549 126.288 39.2256C126.327 39.1963 126.415 39.1816 126.552 39.1816L130.697 39.2402H141.317L145.478 39.1816C145.634 39.1816 145.731 39.2012 145.771 39.2402C145.8 39.2793 145.814 39.3721 145.814 39.5186L145.756 42.5068V47.8535L145.814 50.8271C145.814 50.9834 145.795 51.0762 145.756 51.1055C145.717 51.1348 145.624 51.1494 145.478 51.1494L141.317 51.0908H137.318V53.2734H145.302L149.052 53.2148C149.208 53.2148 149.306 53.2344 149.345 53.2734C149.374 53.3125 149.389 53.4004 149.389 53.5371V55.6758C149.389 55.832 149.369 55.9297 149.33 55.9688C149.301 56.0078 149.208 56.0273 149.052 56.0273L145.302 55.9688H139.208C141.679 58.3223 145.272 60.1631 149.989 61.4912C149.501 61.999 149.047 62.6875 148.627 63.5566C148.383 64.0547 148.183 64.3037 148.026 64.3037C147.938 64.3037 147.699 64.2354 147.309 64.0986C143.207 62.5947 139.848 60.3047 137.23 57.2285L137.45 65.0947C137.45 65.251 137.431 65.3438 137.392 65.373C137.353 65.4023 137.26 65.417 137.113 65.417H134.477C134.301 65.417 134.193 65.3975 134.154 65.3584C134.125 65.3193 134.11 65.2314 134.11 65.0947C134.11 64.9482 134.125 64.4648 134.154 63.6445C134.252 61.2031 134.311 59.1035 134.33 57.3457C131.938 60.2461 128.744 62.5166 124.75 64.1572C124.369 64.3135 124.13 64.3916 124.032 64.3916C123.866 64.3916 123.676 64.1523 123.461 63.6738C123.08 62.9414 122.602 62.3018 122.025 61.7549C126.381 60.3877 129.75 58.459 132.133 55.9688H126.771ZM142.724 41.7305H137.318V44.0742H142.724V41.7305ZM142.724 48.7178V46.418H137.318V48.7178H142.724ZM129.32 44.0742H134.242V41.7305H129.32V44.0742ZM129.32 48.7178H134.242V46.418H129.32V48.7178ZM153.49 57.7852C153.305 58.127 153.163 58.2979 153.065 58.2979C152.958 58.2979 152.86 58.127 152.772 57.7852C152.509 56.877 152.167 56.1445 151.747 55.5879C153.524 53.0488 154.765 50.0215 155.468 46.5059L152.978 46.5645C152.802 46.5645 152.699 46.54 152.67 46.4912C152.631 46.4521 152.611 46.3545 152.611 46.1982V44.0449C152.611 43.8789 152.636 43.7812 152.685 43.752C152.724 43.7227 152.821 43.708 152.978 43.708L155.468 43.7812H155.673V42.3018C155.673 40.5146 155.604 39.0938 155.468 38.0391C156.425 38.0684 157.401 38.1416 158.397 38.2588C158.7 38.3174 158.852 38.4248 158.852 38.5811C158.852 38.6885 158.793 38.8887 158.676 39.1816C158.539 39.5234 158.471 40.5439 158.471 42.2432V43.7812L160.39 43.708C160.546 43.708 160.639 43.7275 160.668 43.7666C160.697 43.8057 160.712 43.8984 160.712 44.0449V46.1982C160.712 46.374 160.692 46.4814 160.653 46.5205C160.614 46.5498 160.526 46.5645 160.39 46.5645C160.37 46.5645 160.185 46.5596 159.833 46.5498C159.452 46.5303 159.047 46.5156 158.617 46.5059C159.34 48.4199 160.238 49.9873 161.312 51.208C160.941 51.8037 160.653 52.4727 160.448 53.2148C160.351 53.5566 160.258 53.7275 160.17 53.7275C160.082 53.7275 159.945 53.5664 159.76 53.2441C159.164 52.1602 158.715 51.1152 158.412 50.1094C158.422 53.5566 158.456 57.1846 158.515 60.9932C158.534 61.8721 158.554 62.9414 158.573 64.2012C158.583 64.7773 158.588 65.0996 158.588 65.168C158.588 65.3828 158.485 65.4902 158.28 65.4902H155.922C155.746 65.4902 155.639 65.4707 155.6 65.4316C155.57 65.3926 155.556 65.3047 155.556 65.168C155.556 65.1387 155.57 64.4307 155.6 63.0439C155.697 58.9717 155.751 55.1973 155.761 51.7207C155.233 53.9082 154.477 55.9297 153.49 57.7852ZM171.669 62.0771C172.343 62.1357 173.061 62.165 173.822 62.165C174.604 62.165 174.994 61.833 174.994 61.1689V47.458H174.042L171.303 47.5166C171.127 47.5166 171.024 47.4971 170.995 47.458C170.966 47.4189 170.951 47.3311 170.951 47.1943V44.8799C170.951 44.7139 170.971 44.6162 171.01 44.5869C171.049 44.5576 171.146 44.543 171.303 44.543L174.042 44.6162H174.994V42.2725C174.994 40.6221 174.916 39.2109 174.76 38.0391C175.707 38.0684 176.698 38.1367 177.733 38.2441C178.056 38.2832 178.217 38.3857 178.217 38.5518C178.217 38.6885 178.153 38.8984 178.026 39.1816C177.909 39.416 177.851 40.4268 177.851 42.2139V44.6162L179.711 44.543C179.867 44.543 179.965 44.5625 180.004 44.6016C180.033 44.6406 180.048 44.7334 180.048 44.8799V47.1943C180.048 47.3506 180.023 47.4434 179.975 47.4727C179.945 47.502 179.857 47.5166 179.711 47.5166C179.701 47.5166 179.511 47.5117 179.14 47.502C178.749 47.4824 178.319 47.4678 177.851 47.458V55.5879L177.909 61.7402C177.909 62.5898 177.841 63.2051 177.704 63.5859C177.567 63.957 177.313 64.2842 176.942 64.5674C176.61 64.8213 176.215 64.9873 175.756 65.0654C175.297 65.1533 174.594 65.1973 173.646 65.1973C173.148 65.1973 172.855 65.1582 172.768 65.0801C172.68 65.002 172.592 64.7529 172.504 64.333C172.328 63.3857 172.05 62.6338 171.669 62.0771ZM167.582 43.5615H167.143V45.4805H167.201L169.896 45.4219C170.053 45.4219 170.15 45.4463 170.189 45.4951C170.219 45.5342 170.233 45.627 170.233 45.7734V47.5752C170.233 47.7412 170.209 47.8389 170.16 47.8682C170.131 47.8975 170.043 47.9121 169.896 47.9121L167.201 47.8535H164.403L161.679 47.9121C161.522 47.9121 161.425 47.8926 161.386 47.8535C161.356 47.8145 161.342 47.7217 161.342 47.5752V45.7734C161.342 45.6074 161.366 45.5049 161.415 45.4658C161.444 45.4365 161.532 45.4219 161.679 45.4219L164.403 45.4805H164.462V43.5615H164.052L160.99 43.6201C160.834 43.6201 160.736 43.6006 160.697 43.5615C160.668 43.5225 160.653 43.4297 160.653 43.2832V41.3643C160.653 41.1689 160.766 41.0713 160.99 41.0713L164.052 41.1299H164.462V40.7637C164.462 39.6113 164.403 38.7129 164.286 38.0684C165.497 38.1074 166.425 38.166 167.069 38.2441C167.313 38.2734 167.436 38.3662 167.436 38.5225C167.436 38.6006 167.387 38.7617 167.289 39.0059C167.191 39.2012 167.143 39.7773 167.143 40.7344V41.1299H167.582L170.644 41.0713C170.868 41.0713 170.98 41.1689 170.98 41.3643V43.2832C170.98 43.4492 170.961 43.5469 170.922 43.5762C170.883 43.6055 170.79 43.6201 170.644 43.6201L167.582 43.5615ZM164.491 49.4062H167.113L169.75 49.3477C169.916 49.3477 170.019 49.3721 170.058 49.4209C170.087 49.46 170.102 49.5576 170.102 49.7139L170.043 51.6328V53.376L170.102 55.3389C170.102 55.5049 170.077 55.6025 170.028 55.6318C169.989 55.6611 169.896 55.6758 169.75 55.6758L167.113 55.6172H164.491L161.854 55.6758C161.698 55.6758 161.605 55.6562 161.576 55.6172C161.547 55.5781 161.532 55.4854 161.532 55.3389L161.591 53.376V51.6328L161.532 49.7139C161.532 49.5381 161.552 49.4307 161.591 49.3916C161.63 49.3623 161.718 49.3477 161.854 49.3477L164.491 49.4062ZM167.465 53.6396V51.3545H164.169V53.6396H167.465ZM171.332 59.3672C171.215 59.8164 171.156 60.3877 171.156 61.0811C171.137 61.501 171.088 61.7549 171.01 61.8428C170.932 61.9209 170.702 62.0186 170.321 62.1357C167.362 62.8584 164.74 63.4248 162.455 63.835C161.986 63.8936 161.649 63.9961 161.444 64.1426C161.308 64.2402 161.166 64.2891 161.02 64.2891C160.854 64.2891 160.722 64.1475 160.624 63.8643C160.409 63.1221 160.209 62.2725 160.023 61.3154C160.707 61.3154 161.557 61.2568 162.572 61.1396C163.559 61.0225 164.662 60.8516 165.883 60.627C166.361 59.4746 166.718 58.498 166.952 57.6973C167.118 57.0625 167.211 56.5693 167.23 56.2178C168.1 56.374 168.925 56.5742 169.706 56.8184C169.97 56.916 170.102 57.0381 170.102 57.1846C170.102 57.3018 170.033 57.4287 169.896 57.5654C169.721 57.7412 169.579 57.9707 169.472 58.2539C169.198 58.918 168.93 59.5186 168.666 60.0557C169.477 59.8799 170.365 59.6504 171.332 59.3672ZM172.724 49.9482C173.593 51.5791 174.281 53.3076 174.789 55.1338C174.818 55.2705 174.833 55.3682 174.833 55.4268C174.833 55.5732 174.726 55.71 174.511 55.8369L172.987 56.6719C172.86 56.7402 172.768 56.7744 172.709 56.7744C172.602 56.7744 172.514 56.6426 172.445 56.3789C171.996 54.582 171.347 52.8389 170.497 51.1494C170.438 51.0225 170.409 50.9248 170.409 50.8564C170.409 50.7393 170.517 50.627 170.731 50.5195L172.182 49.8604C172.328 49.7822 172.426 49.7432 172.475 49.7432C172.553 49.7432 172.636 49.8115 172.724 49.9482ZM163.964 56.4961C164.364 57.2383 164.74 58.166 165.092 59.2793C165.121 59.3672 165.136 59.4355 165.136 59.4844C165.136 59.582 164.994 59.6846 164.711 59.792L163.085 60.4219C162.919 60.4805 162.812 60.5098 162.763 60.5098C162.675 60.5098 162.602 60.4023 162.543 60.1875C162.25 59.0938 161.889 58.1514 161.459 57.3604C161.42 57.2725 161.4 57.209 161.4 57.1699C161.4 57.0918 161.513 57.0039 161.737 56.9062L163.393 56.3057C163.49 56.2764 163.573 56.2617 163.642 56.2617C163.759 56.2617 163.866 56.3398 163.964 56.4961ZM198.578 50.1973L202.152 50.1387C202.318 50.1387 202.416 50.1582 202.445 50.1973C202.475 50.2363 202.489 50.3242 202.489 50.4609L202.431 51.999V53.1562C202.431 53.8105 202.44 54.2207 202.46 54.3867C202.509 54.3184 202.616 54.1377 202.782 53.8447C203.3 54.1475 203.881 54.5381 204.525 55.0166C204.682 55.1436 204.76 55.2705 204.76 55.3975C204.76 55.583 204.652 55.7051 204.438 55.7637C204.311 55.8125 204.071 55.9834 203.72 56.2764C203.261 56.6279 202.699 57.0381 202.035 57.5068C203.031 57.9365 204.013 58.2832 204.979 58.5469C204.618 58.8887 204.257 59.3818 203.896 60.0264C203.632 60.4854 203.422 60.7148 203.266 60.7148C203.158 60.7148 202.929 60.6367 202.577 60.4805C200.224 59.4258 198.344 58.1123 196.938 56.54C196.947 57.292 196.967 58.1758 196.996 59.1914C197.016 59.9238 197.025 60.3193 197.025 60.3779C197.025 60.5342 197.006 60.6318 196.967 60.6709C196.928 60.7002 196.825 60.7148 196.659 60.7148H194.682C194.525 60.7148 194.433 60.6953 194.403 60.6562C194.374 60.6172 194.359 60.5244 194.359 60.3779C194.359 60.3389 194.379 59.1621 194.418 56.8477C192.924 58.3125 191.151 59.4844 189.101 60.3633C188.749 60.5 188.539 60.5684 188.471 60.5684C188.324 60.5684 188.134 60.3682 187.899 59.9678C187.558 59.3428 187.191 58.8301 186.801 58.4297C189.662 57.5508 191.942 56.3936 193.642 54.958H193.363L189.76 55.0166C189.604 55.0166 189.511 54.9971 189.481 54.958C189.452 54.9189 189.438 54.8262 189.438 54.6797L189.496 53.1562V51.999L189.438 50.4609C189.438 50.3047 189.457 50.2119 189.496 50.1826C189.535 50.1533 189.623 50.1387 189.76 50.1387L193.363 50.1973H198.578ZM199.721 53.2734V51.9404H192.162V53.2734H199.721ZM198.578 54.958H198.051C198.637 55.5146 199.306 56.0322 200.058 56.5107C200.712 56.0322 201.322 55.5342 201.889 55.0166C201.322 54.9775 200.219 54.958 198.578 54.958ZM191.649 49.084L187.636 49.1426C187.479 49.1426 187.382 49.1182 187.343 49.0693C187.313 49.0303 187.299 48.9375 187.299 48.791V47.3994C187.299 47.2432 187.323 47.1504 187.372 47.1211C187.401 47.0918 187.489 47.0771 187.636 47.0771L191.649 47.1357H194.389V45.9053H193.012L189.32 45.9639C189.145 45.9639 189.037 45.9443 188.998 45.9053C188.969 45.8662 188.954 45.7734 188.954 45.627V44.1914C188.954 44.0352 188.979 43.9424 189.027 43.9131C189.066 43.8838 189.164 43.8691 189.32 43.8691L193.012 43.9277H194.389C194.34 43.0684 194.286 42.4775 194.228 42.1553C195.155 42.1846 196.068 42.2529 196.967 42.3604C197.309 42.4189 197.479 42.5215 197.479 42.668C197.479 42.7266 197.421 42.873 197.304 43.1074C197.216 43.293 197.172 43.5664 197.172 43.9277H199.003L202.724 43.8691C202.88 43.8691 202.978 43.8887 203.017 43.9277C203.046 43.9668 203.061 44.0547 203.061 44.1914V45.627C203.061 45.793 203.036 45.8906 202.987 45.9199C202.958 45.9492 202.87 45.9639 202.724 45.9639L199.003 45.9053H197.172V47.1357H200.321L204.32 47.0771C204.477 47.0771 204.569 47.0967 204.599 47.1357C204.628 47.1748 204.643 47.2627 204.643 47.3994V48.791C204.643 48.957 204.623 49.0596 204.584 49.0986C204.545 49.1279 204.457 49.1426 204.32 49.1426L200.321 49.084H191.649ZM186.068 65.417H183.637C183.49 65.417 183.397 65.3975 183.358 65.3584C183.329 65.3291 183.314 65.2412 183.314 65.0947L183.373 53.4639V47.5166L183.314 39.2549C183.314 39.0791 183.334 38.9717 183.373 38.9326C183.412 38.9033 183.505 38.8887 183.651 38.8887L187.606 38.9473H204.364L208.29 38.8887C208.466 38.8887 208.573 38.9082 208.612 38.9473C208.642 38.9961 208.656 39.0986 208.656 39.2549L208.598 46.4766V53.4639L208.656 65.0654C208.656 65.2217 208.632 65.3145 208.583 65.3438C208.544 65.373 208.446 65.3877 208.29 65.3877H205.902C205.736 65.3877 205.639 65.3682 205.609 65.3291C205.58 65.29 205.565 65.2021 205.565 65.0654V63.8643H186.405V65.0947C186.405 65.251 186.386 65.3438 186.347 65.373C186.308 65.4023 186.215 65.417 186.068 65.417ZM186.405 41.6719V61.1982H205.565V41.6719H186.405Z" fill="white"/>
</svg>
