<svg width="210" height="93" viewBox="0 0 210 93" fill="none" xmlns="http://www.w3.org/2000/svg">
<path d="M37.2405 14.8948C-13.2704 -8.74386 -6.08615 83.4653 37.2405 70.7987C54.051 75.5099 66.5641 63.7738 68 58.3378C39.3043 76.6138 31.9255 6.41731 68 22.2011C64.7205 14.8948 56.4325 8.58138 37.2405 14.8948Z" fill="#D65C5C"/>
<path d="M36 0V20L39.3333 14.902L41 3.13725L36 0Z" fill="#8B6E5B"/>
<path d="M36.3067 19.7719C39.202 8.89423 47.8481 5.66217 56.07 7.31394C54.3281 12.9297 56.3984 16.8143 36.3067 19.7719Z" fill="#56E115"/>
<path d="M8.88574 84.1113L7.01074 84.1406C6.92773 84.1406 6.87891 84.1309 6.86426 84.1113C6.84961 84.0869 6.84229 84.0356 6.84229 83.9575V82.8296C6.84229 82.7515 6.85205 82.7051 6.87158 82.6904C6.89111 82.6758 6.9375 82.6685 7.01074 82.6685L8.88574 82.6978H18.2388L20.0991 82.6685C20.1772 82.6685 20.2261 82.6782 20.2456 82.6978C20.2603 82.7173 20.2676 82.7612 20.2676 82.8296V83.9575C20.2676 84.0405 20.2578 84.0918 20.2383 84.1113C20.2236 84.1309 20.1772 84.1406 20.0991 84.1406L18.2388 84.1113H12.5991C12.3696 84.6143 12.0669 85.127 11.6909 85.6494H16.3784L18.5098 85.6201C18.6123 85.6201 18.6636 85.6763 18.6636 85.7886L18.6343 87.4805V88.6816L18.6636 90.9741C18.6636 91.0718 18.6123 91.1206 18.5098 91.1206H17.2207C17.123 91.1206 17.0742 91.0718 17.0742 90.9741V90.4468H11.376V91.0034C11.376 91.0815 11.3638 91.1279 11.3394 91.1426C11.3247 91.1572 11.2808 91.1646 11.2075 91.1646H9.9624C9.88428 91.1646 9.83789 91.1548 9.82324 91.1353C9.80859 91.1157 9.80127 91.0718 9.80127 91.0034L9.83057 88.7256V87.6855C9.1958 88.2178 8.5 88.689 7.74316 89.0991C7.54297 89.1968 7.42822 89.2456 7.39893 89.2456C7.33057 89.2456 7.24023 89.1211 7.12793 88.8721C6.94238 88.457 6.7373 88.1372 6.5127 87.9126C7.54785 87.4683 8.4585 86.8872 9.24463 86.1694C9.94287 85.5396 10.4824 84.8535 10.8633 84.1113H8.88574ZM17.0742 87.0117H11.376V89.1138H17.0742V87.0117ZM17.1401 78.1055C17.6968 78.1201 18.229 78.1592 18.7368 78.2227C18.8784 78.2373 18.9492 78.2959 18.9492 78.3984C18.9492 78.4326 18.9175 78.5181 18.854 78.6548C18.8101 78.8159 18.7881 79.0674 18.7881 79.4092V80.1709L18.8247 81.3208C18.8247 81.4038 18.8125 81.4526 18.7881 81.4673C18.7686 81.4819 18.7197 81.4893 18.6416 81.4893L16.5835 81.46H10.3433L8.27783 81.4893C8.19971 81.4893 8.15332 81.4795 8.13867 81.46C8.12402 81.4404 8.1167 81.394 8.1167 81.3208L8.13867 80.1709V79.4092C8.13867 78.9355 8.10938 78.501 8.05078 78.1055C8.4707 78.1152 9.00293 78.1494 9.64746 78.208C9.7793 78.2227 9.84521 78.2812 9.84521 78.3838C9.84521 78.4326 9.83057 78.4863 9.80127 78.5449C9.77197 78.6084 9.75488 78.6548 9.75 78.6841C9.69629 78.8013 9.66943 79.0112 9.66943 79.314V80.1416H12.5991V79.0356C12.5991 78.3472 12.5674 77.8149 12.5039 77.439C13.1826 77.4585 13.7246 77.4951 14.1299 77.5488C14.2617 77.5635 14.3276 77.6123 14.3276 77.6953C14.3276 77.7441 14.313 77.8003 14.2837 77.8638C14.2544 77.937 14.2373 77.981 14.2324 77.9956C14.1836 78.147 14.1592 78.4863 14.1592 79.0137V80.1416H17.2354V79.3506C17.2354 78.9014 17.2036 78.4863 17.1401 78.1055ZM25.265 86.6455L23.3754 86.6748C23.2924 86.6748 23.2436 86.665 23.2289 86.6455C23.2143 86.626 23.2069 86.5796 23.2069 86.5063V85.3125C23.2069 85.2295 23.2167 85.1807 23.2362 85.166C23.2558 85.1514 23.3021 85.144 23.3754 85.144L25.265 85.1733H29.0736V83.3716H26.5834L24.5253 83.4009C24.4472 83.4009 24.4008 83.3887 24.3861 83.3643C24.3715 83.3447 24.3642 83.2959 24.3642 83.2178V82.0166C24.3642 81.9189 24.4179 81.8701 24.5253 81.8701L26.5834 81.8994H29.0736V80.1196C27.9896 80.2466 26.7079 80.3589 25.2284 80.4565C25.1308 80.4614 25.0697 80.4639 25.0453 80.4639C24.8939 80.4639 24.7963 80.4346 24.7523 80.376C24.7182 80.332 24.6742 80.2148 24.6205 80.0244C24.5033 79.6436 24.352 79.3042 24.1664 79.0063C26.0756 78.9478 27.7504 78.8184 29.1908 78.6182C30.4604 78.4424 31.5492 78.2373 32.4574 78.0029C32.8627 77.9004 33.3095 77.7441 33.7978 77.5342C34.2274 77.9199 34.5814 78.291 34.8598 78.6475C34.9525 78.75 34.9989 78.8452 34.9989 78.9331C34.9989 79.0308 34.9135 79.0796 34.7426 79.0796C34.4984 79.0991 34.2641 79.1406 34.0395 79.2041C33.0043 79.4824 31.8886 79.7119 30.6923 79.8926V81.8994H33.2411L35.2846 81.8701C35.392 81.8701 35.4457 81.9189 35.4457 82.0166V83.2178C35.4457 83.3057 35.4359 83.3594 35.4164 83.3789C35.3969 83.3936 35.3529 83.4009 35.2846 83.4009L33.2411 83.3716H30.6923V85.1733H34.4276L36.3173 85.144C36.3954 85.144 36.4418 85.1538 36.4564 85.1733C36.4711 85.1929 36.4784 85.2393 36.4784 85.3125V86.5063C36.4784 86.5845 36.4687 86.6333 36.4491 86.6528C36.4345 86.6675 36.3905 86.6748 36.3173 86.6748L34.4276 86.6455H30.6923V87.1436L30.7362 89.1797C30.7362 89.5459 30.6972 89.8242 30.619 90.0146C30.5507 90.1904 30.4286 90.3516 30.2528 90.498C29.9354 90.7471 29.081 90.8716 27.6894 90.8716C27.6015 90.8765 27.5429 90.8789 27.5136 90.8789C27.3671 90.8789 27.2719 90.8472 27.2279 90.7837C27.1938 90.73 27.1596 90.6055 27.1254 90.4102C27.0229 89.8975 26.8861 89.502 26.7152 89.2236C27.1742 89.2871 27.7504 89.3188 28.4438 89.3188C28.7025 89.3188 28.8759 89.2676 28.9638 89.165C29.037 89.082 29.0736 88.9478 29.0736 88.7622V86.6455H25.265ZM47.1595 80.8081C46.7835 83.5864 46.1585 85.7397 45.2845 87.2681C44.6253 88.4204 43.7732 88.9966 42.7283 88.9966C41.9715 88.9966 41.3318 88.6157 40.8094 87.854C40.3211 87.1313 40.077 86.228 40.077 85.144C40.077 83.6743 40.6409 82.373 41.7688 81.2402C43.0481 79.9609 44.6741 79.3213 46.6468 79.3213C48.5267 79.3213 49.9915 79.8779 51.0413 80.9912C51.9202 81.9287 52.3597 83.1055 52.3597 84.5215C52.3597 87.2363 50.8191 89.0576 47.7381 89.9854C47.6502 90.0098 47.577 90.022 47.5184 90.022C47.3719 90.022 47.2303 89.9194 47.0936 89.7144C46.8787 89.3774 46.5296 89.0625 46.0462 88.7695C47.5892 88.4033 48.7122 87.8882 49.4153 87.2241C50.1868 86.4966 50.5726 85.5176 50.5726 84.2871C50.5726 83.2861 50.2234 82.4414 49.5252 81.7529C48.8904 81.123 48.1214 80.8081 47.2181 80.8081H47.1595ZM45.4163 80.896C44.347 81.1108 43.4925 81.5649 42.8528 82.2583C42.0716 83.1372 41.681 84.0625 41.681 85.0342C41.681 85.7227 41.8055 86.2769 42.0545 86.6968C42.2498 87.019 42.4646 87.1802 42.699 87.1802C43.1092 87.1802 43.4852 86.875 43.827 86.2646C44.1932 85.5957 44.5276 84.7363 44.8304 83.6865C45.1038 82.7344 45.2991 81.8042 45.4163 80.896ZM59.1955 78.0029C59.9328 78.1494 60.4772 78.3032 60.8288 78.4644C61.0192 78.5376 61.1145 78.6377 61.1145 78.7646C61.1145 78.8428 61.0803 78.9233 61.0119 79.0063C60.9191 79.1138 60.8288 79.3481 60.7409 79.7095C60.6042 80.3687 60.465 81.3232 60.3234 82.5732C60.2844 83.2324 60.2648 83.6572 60.2648 83.8477C60.2648 83.9795 60.2673 84.1064 60.2722 84.2285C60.6335 83.584 60.9826 82.9419 61.3195 82.3022C61.4318 82.6685 61.5881 82.9932 61.7883 83.2764C61.8469 83.3496 61.8762 83.4302 61.8762 83.5181C61.8762 83.6206 61.8273 83.7451 61.7297 83.8916C61.2609 84.7852 60.9655 85.4248 60.8435 85.8105C60.8093 85.9131 60.7824 86.0645 60.7629 86.2646C60.7629 86.3916 60.6994 86.4697 60.5725 86.499C60.3869 86.5479 59.9865 86.6089 59.3713 86.6821C59.2736 86.6968 59.2028 86.6309 59.1589 86.4844C58.861 85.6787 58.7121 84.6655 58.7121 83.4448C58.7121 82.8003 58.8317 81.5552 59.071 79.7095C59.154 79.0112 59.1955 78.4424 59.1955 78.0029ZM63.9929 78.0322C64.8376 78.0713 65.4089 78.1299 65.7067 78.208C65.9118 78.2617 66.0144 78.3545 66.0144 78.4863C66.0144 78.5205 66.0119 78.5645 66.007 78.6182C65.9826 78.7549 65.9704 78.9844 65.9704 79.3066C66.112 81.1963 66.1828 82.4854 66.1828 83.1738C66.1828 85.4688 65.802 87.2046 65.0402 88.3813C64.4543 89.3188 63.6291 90.1245 62.5646 90.7983C62.467 90.8667 62.3669 90.9009 62.2644 90.9009C62.1667 90.9009 62.0617 90.8447 61.9494 90.7324C61.5734 90.4053 61.1486 90.1758 60.675 90.0439C61.8615 89.3848 62.7136 88.7158 63.2312 88.0371C63.7097 87.3828 64.0417 86.6821 64.2272 85.9351C64.403 85.2271 64.4909 84.3311 64.4909 83.2471C64.4909 81.958 64.4299 80.7642 64.3078 79.6655C64.2443 79.0405 64.1394 78.4961 63.9929 78.0322ZM77.8233 78.0469C78.5851 78.3545 79.1441 78.6328 79.5006 78.8818C79.6422 78.9795 79.713 79.0845 79.713 79.1968C79.713 79.2896 79.6568 79.3896 79.5445 79.4971C79.398 79.6582 79.2442 79.873 79.0831 80.1416C77.8624 82.4854 76.9957 84.0771 76.483 84.917L76.4977 84.9463C77.1178 84.4336 77.7281 84.1772 78.3287 84.1772C79.11 84.1772 79.6788 84.5068 80.0353 85.166C80.2647 85.5908 80.4259 86.2061 80.5187 87.0117C80.587 87.627 80.6847 88.0444 80.8116 88.2642C80.9435 88.4888 81.1363 88.6011 81.3902 88.6011C81.8834 88.6011 82.3546 88.3618 82.8038 87.8833C83.4728 87.1753 83.9757 86.3599 84.3126 85.437C84.5128 85.8862 84.8033 86.3013 85.1842 86.6821C85.2965 86.7798 85.3526 86.8848 85.3526 86.9971C85.3526 87.0898 85.3331 87.1753 85.294 87.2534C84.9913 87.8833 84.5616 88.5034 84.005 89.1138C83.2237 89.9536 82.3033 90.3735 81.2438 90.3735C80.4381 90.3735 79.8546 90.1196 79.4933 89.6118C79.1808 89.1675 78.9781 88.4497 78.8854 87.4585C78.817 86.6968 78.69 86.1694 78.5045 85.8765C78.358 85.6421 78.1554 85.5249 77.8966 85.5249C77.2765 85.5249 76.6466 85.9497 76.0069 86.7993C75.4796 87.5024 74.8937 88.6157 74.2491 90.1392C74.1905 90.2759 74.1197 90.3442 74.0367 90.3442C73.9977 90.3442 73.9488 90.3345 73.8902 90.3149C73.4313 90.1294 73.0455 89.9146 72.733 89.6704C72.6451 89.6118 72.6012 89.5483 72.6012 89.48C72.6012 89.4214 72.6256 89.3506 72.6744 89.2676C74.7154 85.2734 76.1803 82.2632 77.0689 80.2368C77.4742 79.3188 77.7257 78.5889 77.8233 78.0469ZM90.8848 85.1514C91.2705 85.3467 91.6562 85.5469 92.042 85.752C92.1201 85.7959 92.1592 85.8447 92.1592 85.8984C92.1592 85.9326 92.1445 85.9741 92.1152 86.0229C91.8516 86.4233 91.7197 86.8042 91.7197 87.1655C91.7197 87.6782 92.0298 88.0444 92.6499 88.2642C93.2163 88.4692 94.0928 88.5718 95.2793 88.5718C96.666 88.5718 98.021 88.4277 99.3442 88.1396C99.3979 88.1299 99.4419 88.125 99.4761 88.125C99.5737 88.125 99.6348 88.1763 99.6592 88.2788C99.7764 88.7231 99.8569 89.2114 99.9009 89.7437C99.9009 89.7583 99.9009 89.7681 99.9009 89.7729C99.9009 89.8755 99.8154 89.9414 99.6445 89.9707C98.3311 90.21 96.8662 90.3296 95.25 90.3296C91.8076 90.3296 90.0864 89.3188 90.0864 87.2974C90.0864 86.6919 90.3525 85.9766 90.8848 85.1514ZM91.2144 79.4824C92.313 79.7412 93.7168 79.8706 95.4258 79.8706C96.3486 79.8706 97.3887 79.8267 98.5459 79.7388C98.5654 79.7388 98.5801 79.7388 98.5898 79.7388C98.6973 79.7388 98.7583 79.7949 98.7729 79.9072C98.8511 80.3564 98.895 80.7812 98.9048 81.1816C98.9048 81.377 98.8193 81.4819 98.6484 81.4966C97.4717 81.6675 96.2485 82.1631 94.979 82.9834C94.8569 83.0713 94.73 83.1152 94.5981 83.1152C94.4956 83.1152 94.3906 83.0859 94.2832 83.0273C93.9463 82.8076 93.5972 82.6465 93.2358 82.5439C94.0513 82.0117 94.7056 81.5967 95.1987 81.2988C94.979 81.3281 94.6152 81.3428 94.1074 81.3428C93.1455 81.3428 92.2251 81.2573 91.3462 81.0864C91.2144 81.0571 91.1484 80.9668 91.1484 80.8154C91.1484 80.6592 91.1704 80.2148 91.2144 79.4824ZM98.7144 78.7646L99.5054 78.208C99.5347 78.1836 99.564 78.1714 99.5933 78.1714C99.6323 78.1714 99.6787 78.1934 99.7324 78.2373C100.24 78.6328 100.714 79.1699 101.153 79.8486C101.183 79.8877 101.197 79.9243 101.197 79.9585C101.197 80.0024 101.168 80.0439 101.109 80.083L100.479 80.5518C100.436 80.5811 100.396 80.5957 100.362 80.5957C100.318 80.5957 100.272 80.564 100.223 80.5005C99.7593 79.7876 99.2563 79.209 98.7144 78.7646ZM100.091 77.7759L100.838 77.2339C100.877 77.2095 100.912 77.1973 100.941 77.1973C100.97 77.1973 101.012 77.2192 101.065 77.2632C101.642 77.6978 102.118 78.2129 102.494 78.8086C102.523 78.8574 102.538 78.8989 102.538 78.9331C102.538 78.9868 102.508 79.0356 102.45 79.0796L101.849 79.5483C101.805 79.5776 101.764 79.5923 101.725 79.5923C101.676 79.5923 101.632 79.5605 101.593 79.4971C101.173 78.8281 100.672 78.2544 100.091 77.7759ZM109.718 77.6221C110.421 77.7344 110.99 77.876 111.424 78.0469C111.546 78.0908 111.607 78.1763 111.607 78.3032C111.607 78.396 111.573 78.4692 111.505 78.5229C111.417 78.5962 111.331 78.7158 111.248 78.8818C111.229 78.9307 111.197 79.0039 111.153 79.1016C111.065 79.3115 110.98 79.5093 110.897 79.6948C111.864 79.5825 112.774 79.4263 113.629 79.2261C113.663 79.2212 113.692 79.2188 113.717 79.2188C113.795 79.2188 113.846 79.2725 113.871 79.3799C113.958 79.7266 114.01 80.0854 114.024 80.4565C114.024 80.4761 114.024 80.4907 114.024 80.5005C114.024 80.6079 113.939 80.6738 113.768 80.6982C112.601 80.8691 111.429 81.0205 110.252 81.1523C109.759 81.9434 109.386 82.4976 109.132 82.8149L109.146 82.8442C109.62 82.5366 110.121 82.3828 110.648 82.3828C111.727 82.3828 112.335 82.9224 112.472 84.0015C113.497 83.5278 114.234 83.1763 114.683 82.9468C115.167 82.6929 115.545 82.4243 115.819 82.1411C116.283 82.6294 116.634 83.0688 116.873 83.4595C116.952 83.5815 116.991 83.6914 116.991 83.7891C116.991 83.9014 116.915 83.9722 116.764 84.0015C116.461 84.0454 116.156 84.1211 115.848 84.2285C114.378 84.7461 113.304 85.144 112.625 85.4224V87.8394C112.625 87.9907 112.53 88.0811 112.34 88.1104C112.013 88.1592 111.659 88.1836 111.278 88.1836C111.146 88.1836 111.08 88.103 111.08 87.9419C111.08 87.0825 111.085 86.4746 111.095 86.1182C110.401 86.4746 109.915 86.8237 109.637 87.1655C109.403 87.4487 109.286 87.7637 109.286 88.1104C109.286 88.7988 109.979 89.1431 111.366 89.1431C112.454 89.1431 113.7 89.043 115.101 88.8428C115.116 88.8428 115.13 88.8428 115.145 88.8428C115.243 88.8428 115.296 88.8989 115.306 89.0112C115.399 89.4263 115.445 89.8364 115.445 90.2417C115.445 90.2661 115.445 90.2832 115.445 90.293C115.445 90.4443 115.389 90.52 115.277 90.52C114.261 90.6519 113.023 90.7178 111.563 90.7178C109.054 90.7178 107.799 89.8926 107.799 88.2422C107.799 87.4756 108.077 86.7944 108.634 86.1987C109.127 85.6714 109.903 85.1343 110.963 84.5874C110.938 84.1821 110.863 83.9062 110.736 83.7598C110.619 83.6182 110.423 83.5474 110.15 83.5474C110.13 83.5474 110.101 83.5474 110.062 83.5474C109.481 83.5718 108.79 83.9331 107.989 84.6313C107.525 85.0854 107.025 85.6299 106.488 86.2646C106.414 86.3525 106.353 86.3965 106.305 86.3965C106.266 86.3965 106.212 86.3623 106.143 86.2939C105.719 85.8691 105.433 85.5396 105.287 85.3052C105.247 85.2515 105.228 85.2051 105.228 85.166C105.228 85.1123 105.262 85.0586 105.33 85.0049C106.693 83.7891 107.74 82.5488 108.473 81.2842C107.774 81.3135 106.974 81.3281 106.07 81.3281C105.958 81.3281 105.887 81.2476 105.858 81.0864C105.824 80.896 105.775 80.4834 105.711 79.8486C106.19 79.8682 106.693 79.8779 107.22 79.8779C107.855 79.8779 108.502 79.8608 109.161 79.8267C109.342 79.3823 109.491 78.9526 109.608 78.5376C109.681 78.2397 109.718 77.9346 109.718 77.6221ZM123.065 80.2002L121.146 80.2295C121.063 80.2295 121.014 80.2197 120.999 80.2002C120.985 80.1807 120.977 80.1367 120.977 80.0684V78.9697C120.977 78.8916 120.987 78.8452 121.007 78.8306C121.026 78.8159 121.073 78.8086 121.146 78.8086L123.065 78.8379H127.262L127.305 78.5962C127.369 78.1763 127.401 77.7661 127.401 77.3657C128.021 77.3999 128.558 77.4561 129.012 77.5342C129.154 77.5488 129.224 77.6074 129.224 77.71C129.224 77.7734 129.185 77.854 129.107 77.9517C129.019 78.0542 128.953 78.2349 128.909 78.4937L128.836 78.8379H131.883L133.802 78.8086C133.88 78.8086 133.929 78.8184 133.949 78.8379C133.963 78.8574 133.971 78.9014 133.971 78.9697V80.0684C133.971 80.1465 133.958 80.1929 133.934 80.2075C133.919 80.2222 133.875 80.2295 133.802 80.2295L131.883 80.2002H128.565C128.477 80.6152 128.399 80.9521 128.331 81.2109H130.169L132.103 81.1816C132.186 81.1816 132.235 81.1914 132.249 81.2109C132.264 81.2305 132.271 81.2769 132.271 81.3501L132.242 82.9614V86.3965L132.271 88.0005C132.271 88.0835 132.262 88.1348 132.242 88.1543C132.227 88.1738 132.181 88.1836 132.103 88.1836L130.169 88.1543H126.8L124.881 88.1836C124.793 88.1836 124.74 88.1714 124.72 88.147C124.705 88.1274 124.698 88.0786 124.698 88.0005L124.727 86.3965V82.9614L124.698 81.3501C124.698 81.2671 124.71 81.2183 124.735 81.2036C124.754 81.189 124.803 81.1816 124.881 81.1816L126.785 81.2109L127.005 80.2002H123.065ZM130.741 87.0264V86.1694H126.243V87.0264H130.741ZM126.243 85.0928H130.741V84.2358H126.243V85.0928ZM126.243 82.3389V83.1885H130.741V82.3389H126.243ZM121.607 81.394C122.213 81.4087 122.752 81.4429 123.226 81.4966C123.387 81.5112 123.468 81.5649 123.468 81.6577C123.468 81.7065 123.438 81.8115 123.38 81.9727C123.316 82.1045 123.284 82.5146 123.284 83.2031V89.0405H131.685L133.773 89.0112C133.851 89.0112 133.897 89.021 133.912 89.0405C133.927 89.0601 133.934 89.104 133.934 89.1724V90.271C133.934 90.3442 133.924 90.3882 133.905 90.4028C133.89 90.4224 133.846 90.4321 133.773 90.4321L131.685 90.4028H123.284V90.9302C123.284 91.0083 123.272 91.0547 123.248 91.0693C123.228 91.084 123.179 91.0913 123.101 91.0913H121.856C121.778 91.0913 121.732 91.0815 121.717 91.062C121.702 91.0425 121.695 90.9985 121.695 90.9302L121.724 89.3262V83.2324C121.724 82.5 121.685 81.8872 121.607 81.394ZM143.443 84.4189L141.422 84.4482C141.339 84.4482 141.29 84.4385 141.275 84.4189C141.26 84.3994 141.253 84.3555 141.253 84.2871V83.2178C141.253 83.1396 141.263 83.0933 141.282 83.0786C141.302 83.064 141.348 83.0566 141.422 83.0566L143.443 83.0859H144.747C144.776 82.8076 144.791 82.4634 144.791 82.0532C144.791 81.8188 144.786 81.5918 144.776 81.3721H143.729L141.751 81.4014C141.673 81.4014 141.627 81.3916 141.612 81.3721C141.602 81.3574 141.597 81.3135 141.597 81.2402V80.1855C141.597 80.0977 141.605 80.0464 141.619 80.0317C141.634 80.0171 141.678 80.0098 141.751 80.0098L143.56 80.0391C143.248 79.3213 142.913 78.7354 142.557 78.2812C142.523 78.2373 142.506 78.1982 142.506 78.1641C142.506 78.125 142.559 78.0859 142.667 78.0469L143.67 77.6367C143.758 77.6025 143.814 77.5854 143.839 77.5854C143.878 77.5854 143.926 77.6221 143.985 77.6953C144.327 78.1445 144.656 78.6865 144.974 79.3213C144.993 79.3652 145.003 79.4019 145.003 79.4312C145.003 79.4946 144.937 79.5532 144.805 79.6069L143.685 80.0391H145.904C146.319 79.3457 146.624 78.7769 146.82 78.3325C146.917 78.1226 147.003 77.8418 147.076 77.4902C147.554 77.5928 148.067 77.7368 148.614 77.9224C148.746 77.9712 148.812 78.042 148.812 78.1348C148.812 78.2373 148.751 78.3276 148.629 78.4058C148.531 78.4692 148.438 78.584 148.35 78.75C148.067 79.248 147.806 79.6777 147.567 80.0391H147.691L149.669 80.0098C149.747 80.0098 149.793 80.022 149.808 80.0464C149.822 80.0659 149.83 80.1123 149.83 80.1855V81.2402C149.83 81.3184 149.82 81.3647 149.8 81.3794C149.786 81.394 149.742 81.4014 149.669 81.4014L147.691 81.3721H146.292C146.273 82.1631 146.243 82.7344 146.204 83.0859H148.021L150.057 83.0566C150.135 83.0566 150.184 83.0664 150.203 83.0859C150.218 83.1055 150.225 83.1494 150.225 83.2178V84.2871C150.225 84.3604 150.216 84.4067 150.196 84.4263C150.181 84.4409 150.135 84.4482 150.057 84.4482L148.021 84.4189H146.461C147.252 85.8008 148.592 86.7456 150.482 87.2534C150.228 87.5854 150.032 87.9321 149.896 88.2935C149.798 88.5718 149.698 88.7109 149.595 88.7109C149.522 88.7109 149.412 88.6816 149.266 88.623C147.679 88.0518 146.473 87.0264 145.648 85.5469C145.125 86.7578 144.051 87.7637 142.425 88.5645C142.244 88.6523 142.125 88.6963 142.066 88.6963C142.003 88.6963 141.898 88.5718 141.751 88.3228C141.575 88.0103 141.334 87.7197 141.026 87.4512C142.125 87.0312 142.933 86.5894 143.45 86.1255C143.953 85.6763 144.305 85.1074 144.505 84.4189H143.443ZM150.87 89.0698C150.67 89.3579 150.535 89.7437 150.467 90.2271C150.428 90.4761 150.382 90.6201 150.328 90.6592C150.279 90.6982 150.14 90.7227 149.91 90.7324C148.284 90.8252 146.534 90.8716 144.659 90.8716C142.994 90.8716 141.824 90.7324 141.151 90.4541C140.555 90.2051 140.064 89.7583 139.678 89.1138C139.205 89.5776 138.69 90.0195 138.133 90.4395C137.991 90.5518 137.891 90.6494 137.833 90.7324C137.769 90.8252 137.696 90.8716 137.613 90.8716C137.53 90.8716 137.459 90.8105 137.401 90.6885C137.239 90.3906 137.034 89.9219 136.785 89.2822C137.2 89.082 137.496 88.9258 137.672 88.8135C138.062 88.5742 138.482 88.2544 138.931 87.854V84.5215H138.228L137.13 84.5581C137.042 84.5581 136.99 84.5459 136.976 84.5215C136.961 84.502 136.954 84.4531 136.954 84.375V83.2324C136.954 83.1543 136.964 83.1079 136.983 83.0933C137.003 83.0786 137.051 83.0713 137.13 83.0713L138.228 83.1006H139.144L140.264 83.0713C140.342 83.0713 140.391 83.0811 140.411 83.1006C140.425 83.1201 140.433 83.1641 140.433 83.2324L140.404 84.6606V87.8394C140.721 88.4546 141.136 88.8696 141.649 89.0845C142.147 89.2847 143.072 89.3848 144.425 89.3848C146.636 89.3848 148.785 89.2798 150.87 89.0698ZM138.536 77.9517C139.224 78.5962 139.849 79.3335 140.411 80.1636C140.445 80.2124 140.462 80.2515 140.462 80.2808C140.462 80.3345 140.416 80.3931 140.323 80.4565L139.481 81.1377C139.393 81.1963 139.334 81.2256 139.305 81.2256C139.256 81.2256 139.21 81.1914 139.166 81.123C138.59 80.2051 137.977 79.4287 137.327 78.7939C137.283 78.7451 137.261 78.7061 137.261 78.6768C137.261 78.6377 137.308 78.5864 137.401 78.5229L138.221 77.9736C138.304 77.915 138.365 77.8857 138.404 77.8857C138.438 77.8857 138.482 77.9077 138.536 77.9517ZM154.278 87.2681C154.337 87.2681 154.4 87.2974 154.468 87.356C155.591 88.0591 156.587 88.9746 157.457 90.1025C157.525 90.1953 157.559 90.271 157.559 90.3296C157.559 90.4028 157.51 90.4834 157.413 90.5713L156.497 91.3477C156.39 91.4404 156.319 91.4868 156.285 91.4868C156.207 91.4868 156.138 91.438 156.08 91.3403C155.264 90.1587 154.317 89.2017 153.238 88.4692C153.15 88.4106 153.106 88.3618 153.106 88.3228C153.106 88.2837 153.14 88.2227 153.209 88.1396L154.051 87.3926C154.129 87.3096 154.205 87.2681 154.278 87.2681ZM177.359 79.5337V81.7017H181.006C181.216 81.7017 181.355 81.6821 181.424 81.6431C181.507 81.5942 181.583 81.5698 181.651 81.5698C181.753 81.5698 181.946 81.7261 182.229 82.0386C182.552 82.3657 182.713 82.583 182.713 82.6904C182.713 82.7734 182.674 82.854 182.596 82.9321C182.469 83.0542 182.378 83.2349 182.325 83.4741C181.954 85.0269 181.424 86.394 180.735 87.5757C181.424 88.3911 182.33 89.0967 183.453 89.6924C183.169 90.0293 182.942 90.3809 182.771 90.7471C182.654 90.9863 182.576 91.106 182.537 91.106C182.479 91.106 182.369 91.0449 182.208 90.9229C181.28 90.249 180.503 89.5483 179.878 88.8208C179.249 89.6362 178.528 90.3613 177.718 90.9961C177.562 91.1279 177.457 91.1938 177.403 91.1938C177.349 91.1938 177.249 91.084 177.103 90.8643C176.912 90.5713 176.683 90.3052 176.414 90.0659C177.459 89.3726 178.323 88.5645 179.007 87.6416C178.177 86.333 177.647 84.8071 177.417 83.064H177.344C177.32 84.3384 177.239 85.6079 177.103 86.8726C176.912 88.4937 176.492 89.8145 175.843 90.835C175.73 91.0254 175.645 91.1206 175.586 91.1206C175.513 91.1206 175.413 91.0498 175.286 90.9082C175.003 90.6104 174.688 90.3564 174.341 90.1465C175.093 89.2432 175.547 87.9663 175.704 86.3159C175.826 85.2271 175.887 83.7866 175.887 81.9946L175.857 78.2446C175.857 78.1616 175.87 78.1128 175.894 78.0981C175.914 78.0835 175.962 78.0762 176.041 78.0762L177.945 78.1055H181.138L183.013 78.0762C183.116 78.0762 183.167 78.1323 183.167 78.2446V79.3945C183.167 79.5068 183.116 79.563 183.013 79.563L181.138 79.5337H177.359ZM179.849 86.272C180.318 85.3394 180.677 84.27 180.926 83.064H178.721C178.985 84.314 179.361 85.3833 179.849 86.272ZM173.162 78.0615L174.532 78.0322C174.61 78.0322 174.656 78.042 174.671 78.0615C174.686 78.0811 174.693 78.125 174.693 78.1934L174.664 80.2002V85.2319L174.693 87.2314C174.693 87.3096 174.683 87.356 174.664 87.3706C174.644 87.3853 174.6 87.3926 174.532 87.3926L173.162 87.3633H171.727L170.35 87.3926C170.267 87.3926 170.218 87.3828 170.203 87.3633C170.188 87.3438 170.181 87.2998 170.181 87.2314L170.21 85.2319V80.2002L170.181 78.1934C170.181 78.1152 170.191 78.0688 170.21 78.0542C170.23 78.0396 170.276 78.0322 170.35 78.0322L171.727 78.0615H173.162ZM173.331 86.1182V84.5581H171.558V86.1182H173.331ZM173.331 79.3213H171.558V80.7715H173.331V79.3213ZM171.558 83.3716H173.331V81.958H171.558V83.3716ZM169.412 90.4028C169.998 89.7778 170.457 89.0674 170.789 88.2715C170.877 88.0908 170.943 87.8662 170.987 87.5977C171.412 87.7197 171.8 87.8662 172.151 88.0371C172.293 88.0908 172.364 88.1543 172.364 88.2275C172.364 88.3105 172.325 88.3862 172.247 88.4546C172.183 88.5181 172.107 88.6597 172.02 88.8794C171.692 89.6362 171.324 90.2954 170.914 90.8569C170.767 91.0571 170.662 91.1572 170.599 91.1572C170.54 91.1572 170.44 91.0913 170.298 90.9595C170.035 90.73 169.739 90.5444 169.412 90.4028ZM174.766 89.1284C174.468 89.3286 174.188 89.5605 173.924 89.8242C173.836 89.9121 173.768 89.9561 173.719 89.9561C173.65 89.9561 173.56 89.8511 173.448 89.6411C173.243 89.2603 173.023 88.7842 172.789 88.2129C172.769 88.1641 172.759 88.1274 172.759 88.103C172.759 88.0493 172.808 87.9956 172.906 87.9419L173.704 87.5684C173.782 87.5342 173.833 87.5171 173.858 87.5171C173.897 87.5171 173.936 87.5562 173.975 87.6343C174.175 88.0933 174.439 88.5913 174.766 89.1284ZM189.615 82.5879L187.542 82.6172C187.439 82.6172 187.388 82.5635 187.388 82.4561V81.46C187.388 81.3525 187.439 81.2988 187.542 81.2988L189.615 81.3281H191.768V80.3247H188.472L186.538 80.354C186.451 80.354 186.397 80.3418 186.377 80.3174C186.363 80.2979 186.355 80.2515 186.355 80.1782V79.1528C186.355 79.0845 186.368 79.043 186.392 79.0283C186.412 79.0137 186.46 79.0063 186.538 79.0063L188.472 79.0356H191.768V79.0063C191.768 78.3081 191.729 77.7832 191.651 77.4316C192.3 77.4463 192.85 77.4805 193.299 77.5342C193.45 77.5537 193.526 77.605 193.526 77.688C193.526 77.7515 193.501 77.8516 193.453 77.9883C193.394 78.1348 193.365 78.4741 193.365 79.0063V79.0356H197.019L198.975 79.0063C199.082 79.0063 199.136 79.0552 199.136 79.1528V80.1782C199.136 80.2612 199.126 80.3125 199.107 80.332C199.087 80.3467 199.043 80.354 198.975 80.354L197.019 80.3247H193.365V81.3281H195.789L197.847 81.2988C197.935 81.2988 197.986 81.3086 198.001 81.3281C198.016 81.3477 198.023 81.3916 198.023 81.46V82.4561C198.023 82.5342 198.013 82.5806 197.994 82.5952C197.974 82.6099 197.925 82.6172 197.847 82.6172L195.789 82.5879H189.615ZM196.814 83.4741L198.821 83.4448C198.934 83.4448 198.99 83.4961 198.99 83.5986L198.96 84.2505V84.7925L198.99 86.2354C198.99 86.3086 198.98 86.355 198.96 86.3745C198.946 86.3892 198.899 86.3965 198.821 86.3965H197.613C197.53 86.3965 197.481 86.3867 197.466 86.3672C197.452 86.3477 197.444 86.3037 197.444 86.2354V84.7339H188.003V86.2354C188.003 86.3135 187.994 86.3599 187.974 86.3745C187.954 86.3892 187.908 86.3965 187.835 86.3965H186.641C186.553 86.3965 186.499 86.3867 186.48 86.3672C186.465 86.3477 186.458 86.3037 186.458 86.2354L186.487 84.7925V84.3457L186.458 83.5986C186.458 83.5254 186.468 83.4814 186.487 83.4668C186.512 83.4521 186.563 83.4448 186.641 83.4448L188.633 83.4741H196.814ZM197.649 87.854C197.952 88.0054 198.311 88.1348 198.726 88.2422C198.902 88.291 199.007 88.3276 199.041 88.3521C199.085 88.3862 199.107 88.4448 199.107 88.5278C199.107 88.5718 199.1 88.6426 199.085 88.7402C199.031 89.2529 198.941 89.6436 198.814 89.9121C198.716 90.1318 198.567 90.3223 198.367 90.4834C197.996 90.7812 197.198 90.9302 195.972 90.9302C194.952 90.9302 194.246 90.8496 193.855 90.6885C193.484 90.5322 193.299 90.1782 193.299 89.6265V86.7627C193.299 86.1963 193.269 85.6812 193.211 85.2173C193.807 85.2466 194.305 85.2808 194.705 85.3198C194.895 85.3491 194.991 85.4102 194.991 85.5029C194.991 85.6006 194.961 85.7007 194.903 85.8032C194.864 85.9058 194.844 86.1499 194.844 86.5356V88.938C194.844 89.2017 194.915 89.3604 195.057 89.4141C195.237 89.4727 195.591 89.502 196.119 89.502C196.753 89.502 197.159 89.4263 197.334 89.2749C197.53 89.1187 197.635 88.645 197.649 87.854ZM185.996 89.7876C187.569 89.5142 188.663 89.0869 189.278 88.5059C189.766 88.042 190.044 87.3901 190.113 86.5503C190.132 86.3159 190.142 86.1035 190.142 85.9131C190.142 85.6836 190.125 85.4565 190.091 85.2319C190.638 85.2612 191.158 85.3052 191.651 85.3638C191.822 85.3931 191.907 85.459 191.907 85.5615C191.907 85.6006 191.878 85.7007 191.819 85.8618C191.766 85.9839 191.714 86.2744 191.665 86.7334C191.558 87.9102 191.167 88.833 190.494 89.502C189.829 90.1562 188.811 90.6738 187.439 91.0547C187.254 91.1035 187.139 91.1279 187.095 91.1279C187.007 91.1279 186.895 91.0083 186.758 90.769C186.524 90.3345 186.27 90.0073 185.996 89.7876ZM204.375 87.1655C205.02 87.1655 205.557 87.4023 205.987 87.876C206.363 88.2861 206.551 88.7695 206.551 89.3262C206.551 89.9707 206.311 90.5054 205.833 90.9302C205.418 91.3013 204.932 91.4868 204.375 91.4868C203.731 91.4868 203.194 91.25 202.764 90.7764C202.388 90.3662 202.2 89.8828 202.2 89.3262C202.2 88.6816 202.439 88.147 202.918 87.7222C203.333 87.3511 203.819 87.1655 204.375 87.1655ZM204.375 88.0811C203.999 88.0811 203.689 88.2153 203.445 88.4839C203.235 88.7183 203.13 88.999 203.13 89.3262C203.13 89.7021 203.264 90.0122 203.533 90.2563C203.767 90.4663 204.048 90.5713 204.375 90.5713C204.751 90.5713 205.061 90.437 205.305 90.1685C205.515 89.9341 205.62 89.6533 205.62 89.3262C205.62 88.9502 205.486 88.6401 205.218 88.396C204.983 88.186 204.702 88.0811 204.375 88.0811Z" fill="#D65C5C"/>
<path d="M74.8965 27.8926C76.0293 27.9219 77.0693 27.9902 78.0166 28.0977C78.3389 28.1367 78.5 28.2393 78.5 28.4053C78.5 28.5127 78.4268 28.7324 78.2803 29.0645C78.1631 29.3477 78.1045 30.3584 78.1045 32.0967V34.0742H80.2578L83.8906 34.0156C84.1152 34.0156 84.2275 34.1133 84.2275 34.3086V36.5352C84.2275 36.6914 84.2031 36.7842 84.1543 36.8135C84.125 36.8428 84.0371 36.8574 83.8906 36.8574L80.2578 36.7988H78.6465C80.1406 40.6953 82.3574 44.1182 85.2969 47.0674C84.7598 47.7998 84.3008 48.6152 83.9199 49.5137C83.7734 49.8359 83.6562 49.9971 83.5684 49.9971C83.4512 49.9971 83.2803 49.8555 83.0557 49.5723C80.8584 46.8086 79.1787 43.8838 78.0166 40.7979C78.0264 44.0693 78.0654 47.4873 78.1338 51.0518C78.1533 51.6963 78.1777 52.6973 78.207 54.0547C78.2168 54.6211 78.2217 54.9531 78.2217 55.0508C78.2217 55.207 78.2021 55.2998 78.1631 55.3291C78.124 55.3584 78.0361 55.373 77.8994 55.373H75.3359C75.1797 55.373 75.0869 55.3535 75.0576 55.3145C75.0283 55.2754 75.0137 55.1875 75.0137 55.0508C75.0137 54.9336 75.0283 54.1865 75.0576 52.8096C75.1357 48.5615 75.1895 44.7041 75.2188 41.2373C73.9785 44.5479 72.1816 47.5605 69.8281 50.2754C69.6035 50.5586 69.4424 50.7002 69.3447 50.7002C69.2275 50.7002 69.0566 50.5195 68.832 50.1582C68.4414 49.4844 67.9629 48.8643 67.3965 48.2979C70.668 45.1826 73.0752 41.3496 74.6182 36.7988L71.0586 36.8574C70.8926 36.8574 70.7949 36.8379 70.7656 36.7988C70.7363 36.7598 70.7217 36.6719 70.7217 36.5352V34.3086C70.7217 34.1133 70.834 34.0156 71.0586 34.0156L74.6475 34.0742H75.1309V32.1553C75.1309 30.3389 75.0527 28.918 74.8965 27.8926ZM62.5918 27.8926C63.6074 27.9219 64.6572 27.9902 65.7412 28.0977C66.0635 28.1367 66.2246 28.2393 66.2246 28.4053C66.2246 28.5615 66.166 28.7812 66.0488 29.0645C65.8828 29.3867 65.7998 30.3975 65.7998 32.0967V34.0742H65.9756L69.3154 34.0156C69.5303 34.0156 69.6377 34.1133 69.6377 34.3086V36.5352C69.6377 36.6914 69.6182 36.7842 69.5791 36.8135C69.54 36.8428 69.4521 36.8574 69.3154 36.8574L66.1953 36.7988C66.957 38.4785 68.2852 40.3193 70.1797 42.3213C69.6719 42.9756 69.2617 43.6738 68.9492 44.416C68.8125 44.7578 68.6953 44.9287 68.5977 44.9287C68.4902 44.9287 68.3389 44.7871 68.1436 44.5039C67.1768 43.1074 66.3662 41.6621 65.7119 40.168C65.7217 43.6055 65.7607 47.1797 65.8291 50.8906C65.8486 51.6133 65.873 52.6582 65.9023 54.0254C65.9121 54.6113 65.917 54.9531 65.917 55.0508C65.917 55.207 65.8975 55.2998 65.8584 55.3291C65.8193 55.3584 65.7314 55.373 65.5947 55.373H63.0459C62.8799 55.373 62.7822 55.3535 62.7529 55.3145C62.7236 55.2754 62.709 55.1875 62.709 55.0508C62.709 54.9727 62.7236 54.2012 62.7529 52.7363C62.8506 48.4395 62.9092 44.46 62.9287 40.7979C61.9912 43.7959 60.6289 46.5742 58.8418 49.1328C58.666 49.4355 58.5049 49.5869 58.3584 49.5869C58.251 49.5869 58.1436 49.416 58.0361 49.0742C57.7822 48.1855 57.4111 47.3555 56.9229 46.584C59.2471 43.8105 61.0391 40.5488 62.2988 36.7988H61.4199L58.0947 36.8574C57.9385 36.8574 57.8408 36.8379 57.8018 36.7988C57.7725 36.7598 57.7578 36.6719 57.7578 36.5352V34.3086C57.7578 34.1133 57.8701 34.0156 58.0947 34.0156L61.4199 34.0742H62.8262V32.1553C62.8262 30.3682 62.748 28.9473 62.5918 27.8926ZM92.2402 36.8574L88.4023 36.916C88.2461 36.916 88.1533 36.8965 88.124 36.8574C88.0947 36.8184 88.0801 36.7305 88.0801 36.5938V34.5137C88.0801 34.3184 88.1875 34.2207 88.4023 34.2207L92.2402 34.2793H99.3008V32.1553C97.3379 32.3018 95.0771 32.4092 92.5186 32.4775C92.3135 32.4873 92.1816 32.4922 92.123 32.4922C91.8398 32.4922 91.6445 32.4336 91.5371 32.3164C91.4785 32.248 91.3662 32.0332 91.2002 31.6719C90.8779 30.9688 90.5459 30.417 90.2041 30.0166C93.2705 29.9971 96.542 29.8359 100.019 29.5332C101.991 29.3477 103.881 29.0791 105.688 28.7275C106.684 28.542 107.553 28.3223 108.295 28.0684C109.223 28.6445 110.033 29.2256 110.727 29.8115C110.922 30.0068 111.02 30.207 111.02 30.4121C111.02 30.6465 110.81 30.7637 110.39 30.7637C109.794 30.7637 109.252 30.8174 108.764 30.9248C107.406 31.208 105.277 31.5156 102.377 31.8477V34.2793H109.73L113.568 34.2207C113.793 34.2207 113.905 34.3184 113.905 34.5137V36.5938C113.905 36.75 113.886 36.8428 113.847 36.8721C113.808 36.9014 113.715 36.916 113.568 36.916L109.73 36.8574H104.662C107.191 38.8594 110.614 40.4072 114.931 41.501C114.491 42.0576 114.091 42.7021 113.729 43.4346C113.466 43.9717 113.256 44.2402 113.1 44.2402C113.021 44.2402 112.792 44.1719 112.411 44.0352C111.522 43.7227 110.59 43.3369 109.613 42.8779V42.9512L109.555 46.2764V49.3965L109.613 54.8896C109.613 55.0264 109.589 55.1094 109.54 55.1387C109.501 55.168 109.403 55.1826 109.247 55.1826H106.83C106.605 55.1826 106.493 55.085 106.493 54.8896V53.8936H95.4775V55.0361C95.4775 55.2314 95.3701 55.3291 95.1553 55.3291H92.7236C92.5088 55.3291 92.4014 55.2314 92.4014 55.0361L92.46 49.4844V46.7598L92.3867 43.0098C91.5078 43.4492 90.5898 43.8398 89.6328 44.1816C89.252 44.3184 89.0127 44.3867 88.915 44.3867C88.7686 44.3867 88.5684 44.1377 88.3145 43.6396C87.9043 42.8877 87.4941 42.3066 87.084 41.8965C91.2246 40.7441 94.5254 39.0645 96.9863 36.8574H92.2402ZM93.1191 42.6436L96.708 42.6729H105.263C107.226 42.6729 108.485 42.6533 109.042 42.6143C106.269 41.2275 104.027 39.6064 102.318 37.751L102.45 41.6182C102.45 41.7842 102.431 41.8818 102.392 41.9111C102.353 41.9404 102.26 41.9551 102.113 41.9551H99.5352C99.3301 41.9551 99.2275 41.8428 99.2275 41.6182C99.2275 41.4814 99.2471 40.915 99.2861 39.9189C99.3252 38.9912 99.3496 38.2783 99.3594 37.7803C97.6797 39.7236 95.5996 41.3447 93.1191 42.6436ZM95.4775 51.4619H106.493V49.3672H95.4775V51.4619ZM95.4775 45.1045V46.9941H106.493V45.1045H95.4775ZM121.771 45.9688L118.021 46.0273C117.846 46.0273 117.738 46.0078 117.699 45.9688C117.67 45.9297 117.655 45.832 117.655 45.6758V43.5371C117.655 43.3809 117.68 43.2881 117.729 43.2588C117.768 43.2295 117.865 43.2148 118.021 43.2148L121.771 43.2734H129.242V41.0908H125.697L121.552 41.1494C121.396 41.1494 121.303 41.1299 121.273 41.0908C121.244 41.0518 121.229 40.9639 121.229 40.8271L121.288 37.8535V32.5068L121.229 29.5186C121.229 29.3525 121.249 29.2549 121.288 29.2256C121.327 29.1963 121.415 29.1816 121.552 29.1816L125.697 29.2402H136.317L140.478 29.1816C140.634 29.1816 140.731 29.2012 140.771 29.2402C140.8 29.2793 140.814 29.3721 140.814 29.5186L140.756 32.5068V37.8535L140.814 40.8271C140.814 40.9834 140.795 41.0762 140.756 41.1055C140.717 41.1348 140.624 41.1494 140.478 41.1494L136.317 41.0908H132.318V43.2734H140.302L144.052 43.2148C144.208 43.2148 144.306 43.2344 144.345 43.2734C144.374 43.3125 144.389 43.4004 144.389 43.5371V45.6758C144.389 45.832 144.369 45.9297 144.33 45.9688C144.301 46.0078 144.208 46.0273 144.052 46.0273L140.302 45.9688H134.208C136.679 48.3223 140.272 50.1631 144.989 51.4912C144.501 51.999 144.047 52.6875 143.627 53.5566C143.383 54.0547 143.183 54.3037 143.026 54.3037C142.938 54.3037 142.699 54.2354 142.309 54.0986C138.207 52.5947 134.848 50.3047 132.23 47.2285L132.45 55.0947C132.45 55.251 132.431 55.3438 132.392 55.373C132.353 55.4023 132.26 55.417 132.113 55.417H129.477C129.301 55.417 129.193 55.3975 129.154 55.3584C129.125 55.3193 129.11 55.2314 129.11 55.0947C129.11 54.9482 129.125 54.4648 129.154 53.6445C129.252 51.2031 129.311 49.1035 129.33 47.3457C126.938 50.2461 123.744 52.5166 119.75 54.1572C119.369 54.3135 119.13 54.3916 119.032 54.3916C118.866 54.3916 118.676 54.1523 118.461 53.6738C118.08 52.9414 117.602 52.3018 117.025 51.7549C121.381 50.3877 124.75 48.459 127.133 45.9688H121.771ZM137.724 31.7305H132.318V34.0742H137.724V31.7305ZM137.724 38.7178V36.418H132.318V38.7178H137.724ZM124.32 34.0742H129.242V31.7305H124.32V34.0742ZM124.32 38.7178H129.242V36.418H124.32V38.7178ZM148.49 47.7852C148.305 48.127 148.163 48.2979 148.065 48.2979C147.958 48.2979 147.86 48.127 147.772 47.7852C147.509 46.877 147.167 46.1445 146.747 45.5879C148.524 43.0488 149.765 40.0215 150.468 36.5059L147.978 36.5645C147.802 36.5645 147.699 36.54 147.67 36.4912C147.631 36.4521 147.611 36.3545 147.611 36.1982V34.0449C147.611 33.8789 147.636 33.7812 147.685 33.752C147.724 33.7227 147.821 33.708 147.978 33.708L150.468 33.7812H150.673V32.3018C150.673 30.5146 150.604 29.0938 150.468 28.0391C151.425 28.0684 152.401 28.1416 153.397 28.2588C153.7 28.3174 153.852 28.4248 153.852 28.5811C153.852 28.6885 153.793 28.8887 153.676 29.1816C153.539 29.5234 153.471 30.5439 153.471 32.2432V33.7812L155.39 33.708C155.546 33.708 155.639 33.7275 155.668 33.7666C155.697 33.8057 155.712 33.8984 155.712 34.0449V36.1982C155.712 36.374 155.692 36.4814 155.653 36.5205C155.614 36.5498 155.526 36.5645 155.39 36.5645C155.37 36.5645 155.185 36.5596 154.833 36.5498C154.452 36.5303 154.047 36.5156 153.617 36.5059C154.34 38.4199 155.238 39.9873 156.312 41.208C155.941 41.8037 155.653 42.4727 155.448 43.2148C155.351 43.5566 155.258 43.7275 155.17 43.7275C155.082 43.7275 154.945 43.5664 154.76 43.2441C154.164 42.1602 153.715 41.1152 153.412 40.1094C153.422 43.5566 153.456 47.1846 153.515 50.9932C153.534 51.8721 153.554 52.9414 153.573 54.2012C153.583 54.7773 153.588 55.0996 153.588 55.168C153.588 55.3828 153.485 55.4902 153.28 55.4902H150.922C150.746 55.4902 150.639 55.4707 150.6 55.4316C150.57 55.3926 150.556 55.3047 150.556 55.168C150.556 55.1387 150.57 54.4307 150.6 53.0439C150.697 48.9717 150.751 45.1973 150.761 41.7207C150.233 43.9082 149.477 45.9297 148.49 47.7852ZM166.669 52.0771C167.343 52.1357 168.061 52.165 168.822 52.165C169.604 52.165 169.994 51.833 169.994 51.1689V37.458H169.042L166.303 37.5166C166.127 37.5166 166.024 37.4971 165.995 37.458C165.966 37.4189 165.951 37.3311 165.951 37.1943V34.8799C165.951 34.7139 165.971 34.6162 166.01 34.5869C166.049 34.5576 166.146 34.543 166.303 34.543L169.042 34.6162H169.994V32.2725C169.994 30.6221 169.916 29.2109 169.76 28.0391C170.707 28.0684 171.698 28.1367 172.733 28.2441C173.056 28.2832 173.217 28.3857 173.217 28.5518C173.217 28.6885 173.153 28.8984 173.026 29.1816C172.909 29.416 172.851 30.4268 172.851 32.2139V34.6162L174.711 34.543C174.867 34.543 174.965 34.5625 175.004 34.6016C175.033 34.6406 175.048 34.7334 175.048 34.8799V37.1943C175.048 37.3506 175.023 37.4434 174.975 37.4727C174.945 37.502 174.857 37.5166 174.711 37.5166C174.701 37.5166 174.511 37.5117 174.14 37.502C173.749 37.4824 173.319 37.4678 172.851 37.458V45.5879L172.909 51.7402C172.909 52.5898 172.841 53.2051 172.704 53.5859C172.567 53.957 172.313 54.2842 171.942 54.5674C171.61 54.8213 171.215 54.9873 170.756 55.0654C170.297 55.1533 169.594 55.1973 168.646 55.1973C168.148 55.1973 167.855 55.1582 167.768 55.0801C167.68 55.002 167.592 54.7529 167.504 54.333C167.328 53.3857 167.05 52.6338 166.669 52.0771ZM162.582 33.5615H162.143V35.4805H162.201L164.896 35.4219C165.053 35.4219 165.15 35.4463 165.189 35.4951C165.219 35.5342 165.233 35.627 165.233 35.7734V37.5752C165.233 37.7412 165.209 37.8389 165.16 37.8682C165.131 37.8975 165.043 37.9121 164.896 37.9121L162.201 37.8535H159.403L156.679 37.9121C156.522 37.9121 156.425 37.8926 156.386 37.8535C156.356 37.8145 156.342 37.7217 156.342 37.5752V35.7734C156.342 35.6074 156.366 35.5049 156.415 35.4658C156.444 35.4365 156.532 35.4219 156.679 35.4219L159.403 35.4805H159.462V33.5615H159.052L155.99 33.6201C155.834 33.6201 155.736 33.6006 155.697 33.5615C155.668 33.5225 155.653 33.4297 155.653 33.2832V31.3643C155.653 31.1689 155.766 31.0713 155.99 31.0713L159.052 31.1299H159.462V30.7637C159.462 29.6113 159.403 28.7129 159.286 28.0684C160.497 28.1074 161.425 28.166 162.069 28.2441C162.313 28.2734 162.436 28.3662 162.436 28.5225C162.436 28.6006 162.387 28.7617 162.289 29.0059C162.191 29.2012 162.143 29.7773 162.143 30.7344V31.1299H162.582L165.644 31.0713C165.868 31.0713 165.98 31.1689 165.98 31.3643V33.2832C165.98 33.4492 165.961 33.5469 165.922 33.5762C165.883 33.6055 165.79 33.6201 165.644 33.6201L162.582 33.5615ZM159.491 39.4062H162.113L164.75 39.3477C164.916 39.3477 165.019 39.3721 165.058 39.4209C165.087 39.46 165.102 39.5576 165.102 39.7139L165.043 41.6328V43.376L165.102 45.3389C165.102 45.5049 165.077 45.6025 165.028 45.6318C164.989 45.6611 164.896 45.6758 164.75 45.6758L162.113 45.6172H159.491L156.854 45.6758C156.698 45.6758 156.605 45.6562 156.576 45.6172C156.547 45.5781 156.532 45.4854 156.532 45.3389L156.591 43.376V41.6328L156.532 39.7139C156.532 39.5381 156.552 39.4307 156.591 39.3916C156.63 39.3623 156.718 39.3477 156.854 39.3477L159.491 39.4062ZM162.465 43.6396V41.3545H159.169V43.6396H162.465ZM166.332 49.3672C166.215 49.8164 166.156 50.3877 166.156 51.0811C166.137 51.501 166.088 51.7549 166.01 51.8428C165.932 51.9209 165.702 52.0186 165.321 52.1357C162.362 52.8584 159.74 53.4248 157.455 53.835C156.986 53.8936 156.649 53.9961 156.444 54.1426C156.308 54.2402 156.166 54.2891 156.02 54.2891C155.854 54.2891 155.722 54.1475 155.624 53.8643C155.409 53.1221 155.209 52.2725 155.023 51.3154C155.707 51.3154 156.557 51.2568 157.572 51.1396C158.559 51.0225 159.662 50.8516 160.883 50.627C161.361 49.4746 161.718 48.498 161.952 47.6973C162.118 47.0625 162.211 46.5693 162.23 46.2178C163.1 46.374 163.925 46.5742 164.706 46.8184C164.97 46.916 165.102 47.0381 165.102 47.1846C165.102 47.3018 165.033 47.4287 164.896 47.5654C164.721 47.7412 164.579 47.9707 164.472 48.2539C164.198 48.918 163.93 49.5186 163.666 50.0557C164.477 49.8799 165.365 49.6504 166.332 49.3672ZM167.724 39.9482C168.593 41.5791 169.281 43.3076 169.789 45.1338C169.818 45.2705 169.833 45.3682 169.833 45.4268C169.833 45.5732 169.726 45.71 169.511 45.8369L167.987 46.6719C167.86 46.7402 167.768 46.7744 167.709 46.7744C167.602 46.7744 167.514 46.6426 167.445 46.3789C166.996 44.582 166.347 42.8389 165.497 41.1494C165.438 41.0225 165.409 40.9248 165.409 40.8564C165.409 40.7393 165.517 40.627 165.731 40.5195L167.182 39.8604C167.328 39.7822 167.426 39.7432 167.475 39.7432C167.553 39.7432 167.636 39.8115 167.724 39.9482ZM158.964 46.4961C159.364 47.2383 159.74 48.166 160.092 49.2793C160.121 49.3672 160.136 49.4355 160.136 49.4844C160.136 49.582 159.994 49.6846 159.711 49.792L158.085 50.4219C157.919 50.4805 157.812 50.5098 157.763 50.5098C157.675 50.5098 157.602 50.4023 157.543 50.1875C157.25 49.0938 156.889 48.1514 156.459 47.3604C156.42 47.2725 156.4 47.209 156.4 47.1699C156.4 47.0918 156.513 47.0039 156.737 46.9062L158.393 46.3057C158.49 46.2764 158.573 46.2617 158.642 46.2617C158.759 46.2617 158.866 46.3398 158.964 46.4961ZM193.578 40.1973L197.152 40.1387C197.318 40.1387 197.416 40.1582 197.445 40.1973C197.475 40.2363 197.489 40.3242 197.489 40.4609L197.431 41.999V43.1562C197.431 43.8105 197.44 44.2207 197.46 44.3867C197.509 44.3184 197.616 44.1377 197.782 43.8447C198.3 44.1475 198.881 44.5381 199.525 45.0166C199.682 45.1436 199.76 45.2705 199.76 45.3975C199.76 45.583 199.652 45.7051 199.438 45.7637C199.311 45.8125 199.071 45.9834 198.72 46.2764C198.261 46.6279 197.699 47.0381 197.035 47.5068C198.031 47.9365 199.013 48.2832 199.979 48.5469C199.618 48.8887 199.257 49.3818 198.896 50.0264C198.632 50.4854 198.422 50.7148 198.266 50.7148C198.158 50.7148 197.929 50.6367 197.577 50.4805C195.224 49.4258 193.344 48.1123 191.938 46.54C191.947 47.292 191.967 48.1758 191.996 49.1914C192.016 49.9238 192.025 50.3193 192.025 50.3779C192.025 50.5342 192.006 50.6318 191.967 50.6709C191.928 50.7002 191.825 50.7148 191.659 50.7148H189.682C189.525 50.7148 189.433 50.6953 189.403 50.6562C189.374 50.6172 189.359 50.5244 189.359 50.3779C189.359 50.3389 189.379 49.1621 189.418 46.8477C187.924 48.3125 186.151 49.4844 184.101 50.3633C183.749 50.5 183.539 50.5684 183.471 50.5684C183.324 50.5684 183.134 50.3682 182.899 49.9678C182.558 49.3428 182.191 48.8301 181.801 48.4297C184.662 47.5508 186.942 46.3936 188.642 44.958H188.363L184.76 45.0166C184.604 45.0166 184.511 44.9971 184.481 44.958C184.452 44.9189 184.438 44.8262 184.438 44.6797L184.496 43.1562V41.999L184.438 40.4609C184.438 40.3047 184.457 40.2119 184.496 40.1826C184.535 40.1533 184.623 40.1387 184.76 40.1387L188.363 40.1973H193.578ZM194.721 43.2734V41.9404H187.162V43.2734H194.721ZM193.578 44.958H193.051C193.637 45.5146 194.306 46.0322 195.058 46.5107C195.712 46.0322 196.322 45.5342 196.889 45.0166C196.322 44.9775 195.219 44.958 193.578 44.958ZM186.649 39.084L182.636 39.1426C182.479 39.1426 182.382 39.1182 182.343 39.0693C182.313 39.0303 182.299 38.9375 182.299 38.791V37.3994C182.299 37.2432 182.323 37.1504 182.372 37.1211C182.401 37.0918 182.489 37.0771 182.636 37.0771L186.649 37.1357H189.389V35.9053H188.012L184.32 35.9639C184.145 35.9639 184.037 35.9443 183.998 35.9053C183.969 35.8662 183.954 35.7734 183.954 35.627V34.1914C183.954 34.0352 183.979 33.9424 184.027 33.9131C184.066 33.8838 184.164 33.8691 184.32 33.8691L188.012 33.9277H189.389C189.34 33.0684 189.286 32.4775 189.228 32.1553C190.155 32.1846 191.068 32.2529 191.967 32.3604C192.309 32.4189 192.479 32.5215 192.479 32.668C192.479 32.7266 192.421 32.873 192.304 33.1074C192.216 33.293 192.172 33.5664 192.172 33.9277H194.003L197.724 33.8691C197.88 33.8691 197.978 33.8887 198.017 33.9277C198.046 33.9668 198.061 34.0547 198.061 34.1914V35.627C198.061 35.793 198.036 35.8906 197.987 35.9199C197.958 35.9492 197.87 35.9639 197.724 35.9639L194.003 35.9053H192.172V37.1357H195.321L199.32 37.0771C199.477 37.0771 199.569 37.0967 199.599 37.1357C199.628 37.1748 199.643 37.2627 199.643 37.3994V38.791C199.643 38.957 199.623 39.0596 199.584 39.0986C199.545 39.1279 199.457 39.1426 199.32 39.1426L195.321 39.084H186.649ZM181.068 55.417H178.637C178.49 55.417 178.397 55.3975 178.358 55.3584C178.329 55.3291 178.314 55.2412 178.314 55.0947L178.373 43.4639V37.5166L178.314 29.2549C178.314 29.0791 178.334 28.9717 178.373 28.9326C178.412 28.9033 178.505 28.8887 178.651 28.8887L182.606 28.9473H199.364L203.29 28.8887C203.466 28.8887 203.573 28.9082 203.612 28.9473C203.642 28.9961 203.656 29.0986 203.656 29.2549L203.598 36.4766V43.4639L203.656 55.0654C203.656 55.2217 203.632 55.3145 203.583 55.3438C203.544 55.373 203.446 55.3877 203.29 55.3877H200.902C200.736 55.3877 200.639 55.3682 200.609 55.3291C200.58 55.29 200.565 55.2021 200.565 55.0654V53.8643H181.405V55.0947C181.405 55.251 181.386 55.3438 181.347 55.373C181.308 55.4023 181.215 55.417 181.068 55.417ZM181.405 31.6719V51.1982H200.565V31.6719H181.405Z" fill="#D65C5C"/>
</svg>
