<svg width="32" height="32" viewBox="0 0 32 32" fill="none" xmlns="http://www.w3.org/2000/svg">
<path d="M5.33335 26.6666C4.60002 26.6666 3.97224 26.4055 3.45002 25.8833C2.9278 25.361 2.66669 24.7333 2.66669 23.9999V7.99992C2.66669 7.26659 2.9278 6.63881 3.45002 6.11659C3.97224 5.59436 4.60002 5.33325 5.33335 5.33325H26.6667C27.4 5.33325 28.0278 5.59436 28.55 6.11659C29.0722 6.63881 29.3334 7.26659 29.3334 7.99992V23.9999C29.3334 24.7333 29.0722 25.361 28.55 25.8833C28.0278 26.4055 27.4 26.6666 26.6667 26.6666H5.33335ZM16 17.3333L5.33335 10.6666V23.9999H26.6667V10.6666L16 17.3333ZM16 14.6666L26.6667 7.99992H5.33335L16 14.6666ZM5.33335 10.6666V7.99992V23.9999V10.6666Z" fill="#4A7849"/>
</svg>
