<svg width="30" height="39" viewBox="0 0 30 39" fill="none" xmlns="http://www.w3.org/2000/svg">
<path d="M3.06818 8.10653C2.51657 8.10653 2.03954 7.98935 1.63707 7.75497C1.23698 7.51823 0.92803 7.18916 0.710227 6.76776C0.492424 6.34399 0.383523 5.85275 0.383523 5.29403C0.383523 4.73059 0.492424 4.23816 0.710227 3.81676C0.92803 3.39299 1.23698 3.06392 1.63707 2.82955C2.03954 2.5928 2.51657 2.47443 3.06818 2.47443C3.61979 2.47443 4.09564 2.5928 4.49574 2.82955C4.8982 3.06392 5.20833 3.39299 5.42614 3.81676C5.64394 4.23816 5.75284 4.73059 5.75284 5.29403C5.75284 5.85275 5.64394 6.34399 5.42614 6.76776C5.20833 7.18916 4.8982 7.51823 4.49574 7.75497C4.09564 7.98935 3.61979 8.10653 3.06818 8.10653ZM3.07528 6.93466C3.32623 6.93466 3.53575 6.86364 3.70384 6.72159C3.87192 6.57718 3.99858 6.38068 4.08381 6.1321C4.1714 5.88352 4.2152 5.60062 4.2152 5.28338C4.2152 4.96615 4.1714 4.68324 4.08381 4.43466C3.99858 4.18608 3.87192 3.98958 3.70384 3.84517C3.53575 3.70076 3.32623 3.62855 3.07528 3.62855C2.82197 3.62855 2.6089 3.70076 2.43608 3.84517C2.26563 3.98958 2.1366 4.18608 2.04901 4.43466C1.96378 4.68324 1.92116 4.96615 1.92116 5.28338C1.92116 5.60062 1.96378 5.88352 2.04901 6.1321C2.1366 6.38068 2.26563 6.57718 2.43608 6.72159C2.6089 6.86364 2.82197 6.93466 3.07528 6.93466ZM8.24929 4.84659V8H6.73651V2.54545H8.17827V3.50781H8.24219C8.36293 3.19058 8.56534 2.93963 8.84943 2.75497C9.13352 2.56795 9.47798 2.47443 9.88281 2.47443C10.2616 2.47443 10.5919 2.55729 10.8736 2.72301C11.1553 2.88873 11.3743 3.12547 11.5305 3.43324C11.6868 3.73864 11.7649 4.10322 11.7649 4.52699V8H10.2521V4.79688C10.2545 4.46307 10.1693 4.20265 9.99645 4.01562C9.82363 3.82623 9.5857 3.73153 9.28267 3.73153C9.07907 3.73153 8.89915 3.77533 8.7429 3.86293C8.58902 3.95052 8.46828 4.07836 8.38068 4.24645C8.29545 4.41217 8.25166 4.61222 8.24929 4.84659ZM14.47 0.727273V8H12.9572V0.727273H14.47ZM15.6818 8V2.54545H17.1946V8H15.6818ZM16.4418 1.84233C16.2169 1.84233 16.0239 1.76776 15.8629 1.61861C15.7043 1.46709 15.625 1.28598 15.625 1.07528C15.625 0.86695 15.7043 0.68821 15.8629 0.539062C16.0239 0.387547 16.2169 0.311789 16.4418 0.311789C16.6667 0.311789 16.8584 0.387547 17.017 0.539062C17.178 0.68821 17.2585 0.86695 17.2585 1.07528C17.2585 1.28598 17.178 1.46709 17.017 1.61861C16.8584 1.76776 16.6667 1.84233 16.4418 1.84233ZM19.9192 4.84659V8H18.4064V2.54545H19.8482V3.50781H19.9121C20.0328 3.19058 20.2353 2.93963 20.5194 2.75497C20.8034 2.56795 21.1479 2.47443 21.5527 2.47443C21.9315 2.47443 22.2618 2.55729 22.5435 2.72301C22.8252 2.88873 23.0442 3.12547 23.2005 3.43324C23.3567 3.73864 23.4348 4.10322 23.4348 4.52699V8H21.9221V4.79688C21.9244 4.46307 21.8392 4.20265 21.6664 4.01562C21.4935 3.82623 21.2556 3.73153 20.9526 3.73153C20.749 3.73153 20.5691 3.77533 20.4128 3.86293C20.2589 3.95052 20.1382 4.07836 20.0506 4.24645C19.9654 4.41217 19.9216 4.61222 19.9192 4.84659ZM27.1129 8.10653C26.5518 8.10653 26.0689 7.9929 25.6641 7.76562C25.2616 7.53598 24.9515 7.21165 24.7337 6.79261C24.5159 6.37121 24.407 5.87287 24.407 5.29759C24.407 4.73651 24.5159 4.24408 24.7337 3.82031C24.9515 3.39654 25.258 3.06629 25.6534 2.82955C26.0511 2.5928 26.5175 2.47443 27.0526 2.47443C27.4124 2.47443 27.7474 2.53243 28.0575 2.64844C28.37 2.76207 28.6423 2.93371 28.8743 3.16335C29.1087 3.39299 29.291 3.68182 29.4212 4.02983C29.5514 4.37547 29.6165 4.7803 29.6165 5.24432V5.6598H25.0107V4.7223H28.1925C28.1925 4.5045 28.1451 4.31155 28.0504 4.14347C27.9557 3.97538 27.8243 3.84399 27.6562 3.74929C27.4905 3.65223 27.2976 3.60369 27.0774 3.60369C26.8478 3.60369 26.6442 3.65696 26.4666 3.76349C26.2914 3.86766 26.1541 4.00852 26.0547 4.18608C25.9553 4.36127 25.9044 4.55658 25.902 4.77202V5.66335C25.902 5.93324 25.9517 6.16643 26.0511 6.36293C26.1529 6.55942 26.2962 6.71094 26.4808 6.81747C26.6655 6.92401 26.8845 6.97727 27.1378 6.97727C27.3059 6.97727 27.4598 6.9536 27.5994 6.90625C27.7391 6.8589 27.8587 6.78788 27.9581 6.69318C28.0575 6.59848 28.1333 6.48248 28.1854 6.34517L29.5845 6.4375C29.5135 6.77367 29.3679 7.06723 29.1477 7.31818C28.9299 7.56676 28.6482 7.76089 28.3026 7.90057C27.9593 8.03788 27.5627 8.10653 27.1129 8.10653ZM7.98384 13.1009L6.5989 13.1861C6.57522 13.0677 6.52433 12.9612 6.4462 12.8665C6.36808 12.7694 6.26509 12.6925 6.13725 12.6357C6.01178 12.5765 5.86145 12.5469 5.68626 12.5469C5.45188 12.5469 5.2542 12.5966 5.09322 12.696C4.93223 12.7931 4.85174 12.9233 4.85174 13.0866C4.85174 13.2169 4.90382 13.3269 5.00799 13.4169C5.11216 13.5069 5.2909 13.5791 5.54421 13.6335L6.53143 13.8324C7.06173 13.9413 7.45709 14.1165 7.71751 14.358C7.97792 14.5994 8.10813 14.9167 8.10813 15.3097C8.10813 15.6671 8.00278 15.9808 7.79208 16.2507C7.58375 16.5206 7.29729 16.7313 6.93271 16.8828C6.57049 17.032 6.15264 17.1065 5.67915 17.1065C4.95709 17.1065 4.38181 16.9562 3.9533 16.6555C3.52717 16.3525 3.2774 15.9406 3.20401 15.4197L4.69194 15.3416C4.73692 15.5618 4.84582 15.7299 5.01864 15.8459C5.19147 15.9595 5.41282 16.0163 5.68271 16.0163C5.94786 16.0163 6.16093 15.9654 6.32191 15.8636C6.48526 15.7595 6.56812 15.6257 6.57049 15.4624C6.56812 15.325 6.51012 15.2126 6.39648 15.125C6.28285 15.035 6.10766 14.9664 5.87092 14.919L4.92631 14.7308C4.39364 14.6243 3.9971 14.4396 3.73668 14.1768C3.47863 13.9141 3.34961 13.5791 3.34961 13.1719C3.34961 12.8215 3.44431 12.5196 3.6337 12.2663C3.82546 12.013 4.09416 11.8177 4.43981 11.6804C4.78782 11.5431 5.19502 11.4744 5.6614 11.4744C6.35032 11.4744 6.89246 11.62 7.28782 11.9112C7.68555 12.2024 7.91755 12.599 7.98384 13.1009ZM10.5735 13.8466V17H9.06072V9.72727H10.5309V12.5078H10.5948C10.7179 12.1858 10.9168 11.9337 11.1914 11.7514C11.466 11.5668 11.8105 11.4744 12.2248 11.4744C12.6036 11.4744 12.9338 11.5573 13.2156 11.723C13.4996 11.8864 13.7198 12.1219 13.8761 12.4297C14.0347 12.7351 14.1128 13.1009 14.1104 13.527V17H12.5977V13.7969C12.6 13.4607 12.5148 13.1991 12.342 13.0121C12.1715 12.825 11.9324 12.7315 11.6246 12.7315C11.4187 12.7315 11.2364 12.7753 11.0778 12.8629C10.9215 12.9505 10.7984 13.0784 10.7085 13.2464C10.6209 13.4122 10.5759 13.6122 10.5735 13.8466ZM17.7654 17.1065C17.2138 17.1065 16.7368 16.9893 16.3343 16.755C15.9342 16.5182 15.6253 16.1892 15.4075 15.7678C15.1897 15.344 15.0808 14.8527 15.0808 14.294C15.0808 13.7306 15.1897 13.2382 15.4075 12.8168C15.6253 12.393 15.9342 12.0639 16.3343 11.8295C16.7368 11.5928 17.2138 11.4744 17.7654 11.4744C18.3171 11.4744 18.7929 11.5928 19.193 11.8295C19.5955 12.0639 19.9056 12.393 20.1234 12.8168C20.3412 13.2382 20.4501 13.7306 20.4501 14.294C20.4501 14.8527 20.3412 15.344 20.1234 15.7678C19.9056 16.1892 19.5955 16.5182 19.193 16.755C18.7929 16.9893 18.3171 17.1065 17.7654 17.1065ZM17.7725 15.9347C18.0235 15.9347 18.233 15.8636 18.4011 15.7216C18.5692 15.5772 18.6958 15.3807 18.7811 15.1321C18.8687 14.8835 18.9125 14.6006 18.9125 14.2834C18.9125 13.9661 18.8687 13.6832 18.7811 13.4347C18.6958 13.1861 18.5692 12.9896 18.4011 12.8452C18.233 12.7008 18.0235 12.6286 17.7725 12.6286C17.5192 12.6286 17.3062 12.7008 17.1333 12.8452C16.9629 12.9896 16.8339 13.1861 16.7463 13.4347C16.661 13.6832 16.6184 13.9661 16.6184 14.2834C16.6184 14.6006 16.661 14.8835 16.7463 15.1321C16.8339 15.3807 16.9629 15.5772 17.1333 15.7216C17.3062 15.8636 17.5192 15.9347 17.7725 15.9347ZM21.4338 19.0455V11.5455H22.9252V12.4616H22.9927C23.059 12.3149 23.1549 12.1657 23.2804 12.0142C23.4082 11.8603 23.5739 11.7325 23.7775 11.6307C23.9835 11.5265 24.2392 11.4744 24.5446 11.4744C24.9423 11.4744 25.3092 11.5786 25.6454 11.7869C25.9816 11.9929 26.2503 12.3042 26.4515 12.7209C26.6528 13.1352 26.7534 13.6548 26.7534 14.2798C26.7534 14.8883 26.6551 15.402 26.4586 15.821C26.2645 16.2377 25.9993 16.5537 25.6632 16.7692C25.3294 16.9822 24.9553 17.0888 24.541 17.0888C24.2475 17.0888 23.9977 17.0402 23.7917 16.9432C23.5881 16.8461 23.4212 16.7242 23.291 16.5774C23.1608 16.4283 23.0614 16.2779 22.9927 16.1264H22.9466V19.0455H21.4338ZM22.9146 14.2727C22.9146 14.5971 22.9596 14.88 23.0495 15.1214C23.1395 15.3629 23.2697 15.5511 23.4402 15.6861C23.6106 15.8187 23.8178 15.8849 24.0616 15.8849C24.3078 15.8849 24.5162 15.8175 24.6866 15.6825C24.8571 15.5452 24.9861 15.3558 25.0737 15.1143C25.1636 14.8705 25.2086 14.59 25.2086 14.2727C25.2086 13.9579 25.1648 13.6809 25.0772 13.4418C24.9896 13.2027 24.8606 13.0156 24.6902 12.8807C24.5197 12.7457 24.3102 12.6783 24.0616 12.6783C23.8154 12.6783 23.6071 12.7434 23.4366 12.8736C23.2685 13.0038 23.1395 13.1884 23.0495 13.4276C22.9596 13.6667 22.9146 13.9484 22.9146 14.2727Z" fill="white"/>
<path d="M24.0469 29.05V37C24.0469 37.55 23.8511 38.0208 23.4594 38.4125C23.0678 38.8042 22.5969 39 22.0469 39H8.04694C7.49694 39 7.02611 38.8042 6.63444 38.4125C6.24277 38.0208 6.04694 37.55 6.04694 37V29.05C5.66361 28.7 5.36777 28.25 5.15944 27.7C4.95111 27.15 4.94694 26.55 5.14694 25.9L6.19694 22.5C6.33027 22.0667 6.56777 21.7083 6.90944 21.425C7.25111 21.1417 7.64694 21 8.09694 21H21.9969C22.4469 21 22.8386 21.1375 23.1719 21.4125C23.5053 21.6875 23.7469 22.05 23.8969 22.5L24.9469 25.9C25.1469 26.55 25.1428 27.1417 24.9344 27.675C24.7261 28.2083 24.4303 28.6667 24.0469 29.05ZM17.2469 28C17.6969 28 18.0386 27.8458 18.2719 27.5375C18.5053 27.2292 18.5969 26.8833 18.5469 26.5L17.9969 23H16.0469V26.7C16.0469 27.05 16.1636 27.3542 16.3969 27.6125C16.6303 27.8708 16.9136 28 17.2469 28ZM12.7469 28C13.1303 28 13.4428 27.8708 13.6844 27.6125C13.9261 27.3542 14.0469 27.05 14.0469 26.7V23H12.0969L11.5469 26.5C11.4803 26.9 11.5678 27.25 11.8094 27.55C12.0511 27.85 12.3636 28 12.7469 28ZM8.29694 28C8.59694 28 8.85944 27.8917 9.08444 27.675C9.30944 27.4583 9.44694 27.1833 9.49694 26.85L10.0469 23H8.09694L7.09694 26.35C6.99694 26.6833 7.05111 27.0417 7.25944 27.425C7.46777 27.8083 7.81361 28 8.29694 28ZM21.7969 28C22.2803 28 22.6303 27.8083 22.8469 27.425C23.0636 27.0417 23.1136 26.6833 22.9969 26.35L21.9469 23H20.0469L20.5969 26.85C20.6469 27.1833 20.7844 27.4583 21.0094 27.675C21.2344 27.8917 21.4969 28 21.7969 28ZM8.04694 37H22.0469V29.95C21.9636 29.9833 21.9094 30 21.8844 30H21.7969C21.3469 30 20.9511 29.925 20.6094 29.775C20.2678 29.625 19.9303 29.3833 19.5969 29.05C19.2969 29.35 18.9553 29.5833 18.5719 29.75C18.1886 29.9167 17.7803 30 17.3469 30C16.8969 30 16.4761 29.9167 16.0844 29.75C15.6928 29.5833 15.3469 29.35 15.0469 29.05C14.7636 29.35 14.4344 29.5833 14.0594 29.75C13.6844 29.9167 13.2803 30 12.8469 30C12.3636 30 11.9261 29.9167 11.5344 29.75C11.1428 29.5833 10.7969 29.35 10.4969 29.05C10.1469 29.4 9.80111 29.6458 9.45944 29.7875C9.11777 29.9292 8.73027 30 8.29694 30H8.18444C8.14277 30 8.09694 29.9833 8.04694 29.95V37Z" fill="white"/>
</svg>
