<svg width="40" height="40" viewBox="0 0 40 40" fill="none" xmlns="http://www.w3.org/2000/svg">
<circle cx="20" cy="20" r="19" fill="white" stroke="#D6D773" stroke-width="2"/>
<path d="M28.2725 18.797C28.1577 18.9088 28.0021 18.9716 27.8398 18.9716C27.6776 18.9716 27.522 18.9088 27.4072 18.797L21.1049 12.6515V28.7253C21.1049 28.8837 21.0403 29.0356 20.9255 29.1476C20.8107 29.2596 20.655 29.3225 20.4926 29.3225C20.3302 29.3225 20.1745 29.2596 20.0596 29.1476C19.9448 29.0356 19.8803 28.8837 19.8803 28.7253V12.6515L13.578 18.797C13.4619 18.9025 13.3084 18.9599 13.1498 18.9572C12.9912 18.9544 12.8398 18.8918 12.7277 18.7824C12.6155 18.6729 12.5512 18.5253 12.5484 18.3706C12.5456 18.216 12.6045 18.0662 12.7127 17.953L20.0599 10.7874C20.1747 10.6756 20.3303 10.6128 20.4926 10.6128C20.6548 10.6128 20.8105 10.6756 20.9253 10.7874L28.2725 17.953C28.3872 18.065 28.4516 18.2168 28.4516 18.375C28.4516 18.5333 28.3872 18.685 28.2725 18.797Z" fill="#D6D773"/>
</svg>
