<svg width="36" height="36" viewBox="0 0 36 36" fill="none" xmlns="http://www.w3.org/2000/svg">
<circle cx="18.0001" cy="18" r="12.7105" stroke="white" stroke-width="3"/>
<mask id="path-2-inside-1_843_226" fill="white">
<path fill-rule="evenodd" clip-rule="evenodd" d="M19.3073 11.6619C19.435 11.5555 19.5823 11.4752 19.7409 11.4258C19.8996 11.3763 20.0664 11.3586 20.2319 11.3736C20.3974 11.3886 20.5583 11.4361 20.7055 11.5134C20.8526 11.5906 20.9831 11.6961 21.0894 11.8238L25.3049 16.8829C25.5102 17.1416 25.6061 17.4703 25.5723 17.7987C25.5384 18.1271 25.3775 18.4293 25.1238 18.6407C24.8702 18.8521 24.5439 18.9559 24.2148 18.93C23.8856 18.904 23.5796 18.7504 23.3622 18.5019L19.1455 13.4428C18.9309 13.1851 18.8274 12.8528 18.8577 12.5188C18.8881 12.1849 19.0498 11.8767 19.3073 11.6619Z"/>
</mask>
<path d="M19.3073 11.6619L21.2286 13.9661L21.229 13.9657L19.3073 11.6619ZM21.0894 11.8238L18.7841 13.7436L18.7847 13.7443L21.0894 11.8238ZM25.3049 16.8829L27.655 15.0183L27.6327 14.9901L27.6097 14.9625L25.3049 16.8829ZM23.3622 18.5019L21.0578 20.4226L21.0807 20.4502L21.1043 20.4772L23.3622 18.5019ZM19.1455 13.4428L16.8402 15.3626L16.841 15.3635L19.1455 13.4428ZM21.229 13.9657C21.0539 14.1117 20.8518 14.2218 20.6341 14.2897L18.8478 8.56181C18.3128 8.72864 17.816 8.99926 17.3857 9.3582L21.229 13.9657ZM20.6341 14.2897C20.4165 14.3576 20.1876 14.3819 19.9605 14.3613L20.5034 8.3859C19.9453 8.3352 19.3827 8.39498 18.8478 8.56181L20.6341 14.2897ZM19.9605 14.3613C19.7335 14.3407 19.5127 14.2755 19.3108 14.1695L22.1001 8.85727C21.604 8.59677 21.0614 8.43659 20.5034 8.3859L19.9605 14.3613ZM19.3108 14.1695C19.109 14.0635 18.93 13.9188 18.7841 13.7436L23.3948 9.9041C23.0362 9.47349 22.5963 9.11777 22.1001 8.85727L19.3108 14.1695ZM18.7847 13.7443L23.0002 18.8034L27.6097 14.9625L23.3942 9.9034L18.7847 13.7443ZM22.9548 18.7476C22.6733 18.3928 22.5416 17.9419 22.5881 17.4913L28.5565 18.1061C28.6706 16.9986 28.347 15.8904 27.655 15.0183L22.9548 18.7476ZM22.5881 17.4913C22.6345 17.0406 22.8553 16.6261 23.2033 16.336L27.0444 20.9454C27.8997 20.2326 28.4424 19.2136 28.5565 18.1061L22.5881 17.4913ZM23.2033 16.336C23.5513 16.0461 23.9989 15.9036 24.4505 15.9392L23.979 21.9207C25.089 22.0082 26.1891 21.6581 27.0444 20.9454L23.2033 16.336ZM24.4505 15.9392C24.9021 15.9748 25.3219 16.1856 25.6201 16.5265L21.1043 20.4772C21.8374 21.3151 22.8691 21.8332 23.979 21.9207L24.4505 15.9392ZM25.6667 16.5811L21.4499 11.522L16.841 15.3635L21.0578 20.4226L25.6667 16.5811ZM21.4507 11.5229C21.7451 11.8764 21.8871 12.3323 21.8454 12.7904L15.8701 12.2472C15.7677 13.3732 16.1167 14.4938 16.8402 15.3626L21.4507 11.5229ZM21.8454 12.7904C21.8038 13.2486 21.5819 13.6714 21.2286 13.9661L17.3861 9.35783C16.5177 10.0819 15.9724 11.1212 15.8701 12.2472L21.8454 12.7904Z" fill="white" mask="url(#path-2-inside-1_843_226)"/>
<path d="M20.2981 22.902L20.2983 22.9018C20.2982 22.9019 20.2981 22.902 20.2981 22.902ZM20.2981 22.902L20.2977 22.9025L20.1181 22.7528L20.1176 22.7524L20.1173 22.7522L20.1172 22.752L20.117 22.7519L20.1166 22.7516L19.1455 21.9421L19.9368 22.6011L20.1173 22.7515L20.1175 22.7517L20.1223 22.7557L20.2981 22.902Z" stroke="white" stroke-width="3"/>
<mask id="path-5-inside-2_843_226" fill="white">
<path fill-rule="evenodd" clip-rule="evenodd" d="M23.0687 17.6925C23.0687 18.0279 22.9354 18.3496 22.6982 18.5868C22.461 18.824 22.1393 18.9572 21.8039 18.9572H11.6857C11.3502 18.9572 11.0285 18.824 10.7913 18.5868C10.5542 18.3496 10.4209 18.0279 10.4209 17.6925C10.4209 17.357 10.5542 17.0353 10.7913 16.7981C11.0285 16.5609 11.3502 16.4277 11.6857 16.4277H21.8039C22.1393 16.4277 22.461 16.5609 22.6982 16.7981C22.9354 17.0353 23.0687 17.357 23.0687 17.6925Z"/>
</mask>
<path d="M20.0687 17.6925C20.0687 17.2322 20.2515 16.7909 20.5769 16.4655L24.8195 20.7081C25.6193 19.9083 26.0687 18.8235 26.0687 17.6925H20.0687ZM20.5769 16.4655C20.9023 16.14 21.3437 15.9572 21.8039 15.9572V21.9572C22.935 21.9572 24.0197 21.5079 24.8195 20.7081L20.5769 16.4655ZM21.8039 15.9572H11.6857V21.9572H21.8039V15.9572ZM11.6857 15.9572C12.1459 15.9572 12.5872 16.14 12.9127 16.4655L8.67002 20.7081C9.46982 21.5079 10.5546 21.9572 11.6857 21.9572V15.9572ZM12.9127 16.4655C13.2381 16.7909 13.4209 17.2322 13.4209 17.6925H7.4209C7.4209 18.8235 7.87022 19.9083 8.67002 20.7081L12.9127 16.4655ZM13.4209 17.6925C13.4209 18.1527 13.2381 18.594 12.9127 18.9194L8.67002 14.6768C7.87022 15.4766 7.4209 16.5614 7.4209 17.6925H13.4209ZM12.9127 18.9194C12.5872 19.2449 12.1459 19.4277 11.6857 19.4277V13.4277C10.5546 13.4277 9.46982 13.877 8.67002 14.6768L12.9127 18.9194ZM11.6857 19.4277H21.8039V13.4277H11.6857V19.4277ZM21.8039 19.4277C21.3437 19.4277 20.9023 19.2449 20.5769 18.9194L24.8195 14.6768C24.0197 13.877 22.935 13.4277 21.8039 13.4277V19.4277ZM20.5769 18.9194C20.2515 18.594 20.0687 18.1527 20.0687 17.6925H26.0687C26.0687 16.5614 25.6193 15.4766 24.8195 14.6768L20.5769 18.9194Z" fill="white" mask="url(#path-5-inside-2_843_226)"/>
</svg>
