<svg width="25" height="32" viewBox="0 0 25 32" fill="none" xmlns="http://www.w3.org/2000/svg">
<path d="M2.47609 9.28026C2.01577 6.24336 4.1535 3.51546 7.41915 2.51604C7.99868 2.33976 8.62344 2.39084 9.16676 2.65891C9.71008 2.92699 10.1313 3.392 10.345 3.95965L11.3934 6.75997C11.5621 7.21047 11.5926 7.70121 11.481 8.1692C11.3693 8.6372 11.1206 9.06109 10.7667 9.38648L7.64811 12.2472C7.49419 12.3883 7.37951 12.5671 7.31529 12.766C7.25107 12.9649 7.23953 13.1771 7.28177 13.3818L7.3107 13.5073L7.38541 13.8211C7.77422 15.3457 8.36512 16.8111 9.14235 18.1785C9.99099 19.6304 11.0428 20.9531 12.2658 22.1062L12.3622 22.1931C12.5179 22.3316 12.7067 22.4272 12.9103 22.4708C13.1139 22.5144 13.3253 22.5044 13.5239 22.4418L17.5559 21.1696C18.0141 21.0255 18.5049 21.0218 18.9652 21.159C19.4256 21.2962 19.8345 21.568 20.1395 21.9397L22.0483 24.2596C22.8436 25.2252 22.7472 26.6447 21.8338 27.4968C19.3345 29.8313 15.8978 30.3092 13.507 28.3852C10.5752 26.0187 8.10446 23.1306 6.21893 19.866C4.31495 16.6057 3.04659 13.0139 2.47609 9.28026ZM9.80753 13.5411L12.3911 11.1657C13.0993 10.5152 13.5972 9.66749 13.8209 8.73148C14.0447 7.79548 13.984 6.81386 13.6468 5.91263L12.6008 3.11231C12.1717 1.9699 11.3245 1.03394 10.2314 0.494546C9.13829 -0.0448527 7.88117 -0.147239 6.71541 0.208184C2.65926 1.45143 -0.596748 5.09426 0.0925324 9.64479C0.574547 12.8217 1.68559 16.8629 4.13663 21.0827C6.171 24.6027 8.83614 27.7166 11.9983 30.2682C15.5845 33.153 20.3709 32.1681 23.4799 29.2664C24.3695 28.4367 24.9094 27.2983 24.9896 26.0834C25.0698 24.8685 24.6841 23.6688 23.9113 22.7291L22.0025 20.4067C21.3919 19.6643 20.5738 19.1216 19.6532 18.848C18.7325 18.5745 17.7513 18.5826 16.8353 18.8714L13.4877 19.9263C12.6233 19.0337 11.8662 18.0429 11.2319 16.9739C10.6198 15.8929 10.1422 14.7409 9.80994 13.5435" fill="#4A7849"/>
</svg>
