<svg width="410" height="79" viewBox="0 0 410 79" fill="none" xmlns="http://www.w3.org/2000/svg">
<g filter="url(#filter0_d_128_22)">
<path d="M27.46 52.28C27.06 51.4 26.56 50.44 25.96 49.4C25.36 48.36 24.72 47.3 24.04 46.22V70.64H15.52V49.7C14.64 51.9 13.66 53.98 12.58 55.94C11.5 57.9 10.36 59.6 9.16 61.04C8.76 59.76 8.12 58.3 7.24 56.66C6.36 55.02 5.58 53.62 4.9 52.46C6.26 50.94 7.54 49.18 8.74 47.18C9.94 45.14 11 43 11.92 40.76C12.88 38.48 13.68 36.26 14.32 34.1H6.64V25.88H15.52V13.64H24.04V25.88H31.54V34.1H24.04V34.94C24.52 35.38 25.18 36.06 26.02 36.98C26.86 37.9 27.74 38.88 28.66 39.92C29.58 40.96 30.42 41.94 31.18 42.86C31.94 43.74 32.48 44.36 32.8 44.72L27.46 52.28ZM52.84 34.1C54.08 37.86 55.6 41.54 57.4 45.14C59.24 48.7 61.18 51.72 63.22 54.2C62.22 54.96 61.08 55.98 59.8 57.26C58.52 58.54 57.5 59.76 56.74 60.92C55.74 59.4 54.76 57.68 53.8 55.76C52.88 53.84 52 51.8 51.16 49.64V70.64H42.4V48.8C41.08 51.52 39.64 54.08 38.08 56.48C36.52 58.84 34.86 60.9 33.1 62.66C32.62 61.38 31.9 60 30.94 58.52C29.98 57 29.1 55.7 28.3 54.62C31.02 52.02 33.48 48.9 35.68 45.26C37.92 41.62 39.72 37.9 41.08 34.1H32.98V25.88H42.4V13.64H51.16V25.88H61.36V34.1H52.84ZM132.04 35.06C134.4 36.74 137 38.28 139.84 39.68C142.72 41.04 145.62 42.16 148.54 43.04C147.94 43.6 147.28 44.3 146.56 45.14C145.84 45.98 145.16 46.84 144.52 47.72C143.88 48.56 143.36 49.34 142.96 50.06C142.24 49.78 141.52 49.5 140.8 49.22C140.12 48.9 139.44 48.58 138.76 48.26V70.64H129.64V68.96H109.42V70.64H100.72V48.2C99.04 49.08 97.4 49.8 95.8 50.36C95.4 49.64 94.86 48.84 94.18 47.96C93.54 47.08 92.86 46.22 92.14 45.38C91.46 44.54 90.8 43.84 90.16 43.28C93.2 42.4 96.12 41.26 98.92 39.86C101.76 38.42 104.3 36.82 106.54 35.06H92.2V27.32H114.7V24.32C112.14 24.48 109.58 24.62 107.02 24.74C104.46 24.86 101.96 24.94 99.52 24.98C99.4 23.94 99.12 22.7 98.68 21.26C98.24 19.78 97.8 18.56 97.36 17.6C101.72 17.44 106.12 17.2 110.56 16.88C115.04 16.52 119.3 16.08 123.34 15.56C127.38 15 130.92 14.34 133.96 13.58L139.96 20.6C134.96 21.84 129.58 22.78 123.82 23.42V27.32H146.26V35.06H132.04ZM135.1 46.28C130.9 43.84 127.14 40.96 123.82 37.64V45.08H114.7V37.58C113.22 39.26 111.58 40.84 109.78 42.32C108.02 43.76 106.16 45.08 104.2 46.28H135.1ZM129.64 52.76H109.42V54.74H129.64V52.76ZM129.64 62.48V60.5H109.42V62.48H129.64ZM215.68 53.06C218.16 54.82 220.96 56.44 224.08 57.92C227.2 59.4 230.34 60.6 233.5 61.52C232.86 62.08 232.16 62.8 231.4 63.68C230.68 64.56 229.98 65.46 229.3 66.38C228.62 67.3 228.06 68.14 227.62 68.9C224.34 67.62 221.12 66 217.96 64.04C214.8 62.08 211.9 59.88 209.26 57.44V70.7H199.96V57.8C197.32 60.28 194.38 62.52 191.14 64.52C187.94 66.48 184.64 68.08 181.24 69.32C180.8 68.6 180.24 67.78 179.56 66.86C178.88 65.98 178.16 65.12 177.4 64.28C176.68 63.4 176 62.66 175.36 62.06C178.68 61.1 181.94 59.84 185.14 58.28C188.38 56.72 191.22 54.98 193.66 53.06H177.34V45.14H199.96V42.44H183.28V16.4H226.06V42.44H209.26V45.14H231.64V53.06H215.68ZM192.4 26.06H199.96V23.6H192.4V26.06ZM216.46 23.6H209.26V26.06H216.46V23.6ZM199.96 35.24V32.72H192.4V35.24H199.96ZM216.46 32.72H209.26V35.24H216.46V32.72ZM286 25.34H279.34V18.56H286V13.7H293.44V18.56H300.46V25.34H293.44V27.74H299.38V34.46H280.18V27.74H286V25.34ZM277 50.84C276.48 49.08 275.76 46.98 274.84 44.54V70.7H267.34V51.98C266.82 53.54 266.28 55.02 265.72 56.42C265.16 57.78 264.56 59 263.92 60.08C263.6 59.04 263.1 57.82 262.42 56.42C261.74 55.02 261.12 53.86 260.56 52.94C261.56 51.42 262.48 49.6 263.32 47.48C264.16 45.32 264.92 43.06 265.6 40.7C266.28 38.3 266.82 35.98 267.22 33.74H262V25.82H267.34V13.7H274.84V25.82H279.04V33.74H274.84V34.22C275.16 34.74 275.58 35.48 276.1 36.44C276.66 37.36 277.22 38.34 277.78 39.38C278.38 40.42 278.92 41.4 279.4 42.32C279.92 43.24 280.32 43.96 280.6 44.48V35.9H298.78V50.66H280.6V45.14L277 50.84ZM318.1 34.1H314.92V61.94C314.92 63.78 314.74 65.26 314.38 66.38C314.02 67.5 313.32 68.4 312.28 69.08C311.28 69.72 310.08 70.16 308.68 70.4C307.28 70.64 305.64 70.76 303.76 70.76C303.64 69.68 303.34 68.36 302.86 66.8C302.38 65.28 301.88 63.96 301.36 62.84C302.32 62.88 303.24 62.92 304.12 62.96C305 62.96 305.62 62.96 305.98 62.96C306.62 62.92 306.94 62.58 306.94 61.94V53.24L301.9 55.04C301.82 53.68 301.64 52.12 301.36 50.36C301.08 48.56 300.74 46.7 300.34 44.78C299.98 42.82 299.58 41 299.14 39.32L305.32 37.4C305.64 38.36 305.92 39.36 306.16 40.4C306.44 41.44 306.7 42.48 306.94 43.52V34.1H300.52V26.36H306.94V13.94H314.92V26.36H318.1V34.1ZM287.5 44.84H291.52V41.72H287.5V44.84ZM300.82 59.18L301.24 66.2C297.48 66.84 293.68 67.46 289.84 68.06C286 68.66 282.54 69.22 279.46 69.74L277.48 62.36C279.12 62.16 280.96 61.92 283 61.64C285.08 61.36 287.26 61.08 289.54 60.8C289.98 59.4 290.44 57.78 290.92 55.94C291.4 54.06 291.76 52.38 292 50.9L299.86 52.7C299.38 53.94 298.9 55.16 298.42 56.36C297.98 57.56 297.54 58.68 297.1 59.72L300.82 59.18ZM281.98 60.92C281.9 59.88 281.7 58.6 281.38 57.08C281.06 55.52 280.7 54.1 280.3 52.82L286.78 51.14C287.22 52.38 287.64 53.74 288.04 55.22C288.48 56.66 288.76 57.9 288.88 58.94L281.98 60.92ZM400.84 15.8V70.76H392.32V68.78H356.86V70.76H348.7V15.8H400.84ZM392.32 60.98V23.6H356.86V53.72C359.1 53.08 361.3 52.32 363.46 51.44C365.62 50.52 367.6 49.5 369.4 48.38H361.06V38.06H388.6V47.54L391.72 49.58C390 50.9 388.22 52.06 386.38 53.06C387.3 53.42 388.24 53.76 389.2 54.08C390.16 54.4 391.14 54.66 392.14 54.86C391.42 55.5 390.62 56.36 389.74 57.44C388.9 58.52 388.24 59.46 387.76 60.26C385.92 59.7 384.14 58.96 382.42 58.04C380.7 57.08 379.08 56.02 377.56 54.86V59.9H369.94V55.22C367.1 56.78 364.26 58.08 361.42 59.12C361.1 58.64 360.66 58.08 360.1 57.44C359.58 56.76 359.02 56.08 358.42 55.4C357.86 54.72 357.34 54.18 356.86 53.78V60.98H392.32ZM378.46 32.06H390.82V36.74H358.36V32.06H370.6V30.56H360.88V26.06H370.6V24.02H378.46V26.06H388.72V30.56H378.46V32.06ZM381.04 42.2H368.2V44.24H381.04V42.2ZM378.94 48.68C379.3 48.96 379.68 49.26 380.08 49.58C380.48 49.86 380.9 50.16 381.34 50.48C381.78 50.16 382.24 49.82 382.72 49.46C383.24 49.1 383.72 48.74 384.16 48.38H379.3L378.94 48.68Z" fill="#E94242"/>
</g>
<path d="M375.669 16.3743C364.484 16.3743 361.45 14.4514 357.91 3.81504C374.091 5.86051 374.091 9.54233 375.669 16.3743Z" fill="#689967"/>
<path d="M375.544 16.4532C376.704 9.81817 378.727 8.18173 388.334 8.18173C386.311 15.1364 382.772 16.4532 375.544 16.4532Z" fill="#689967"/>
<defs>
<filter id="filter0_d_128_22" x="0.899902" y="13.58" width="403.94" height="65.1801" filterUnits="userSpaceOnUse" color-interpolation-filters="sRGB">
<feFlood flood-opacity="0" result="BackgroundImageFix"/>
<feColorMatrix in="SourceAlpha" type="matrix" values="0 0 0 0 0 0 0 0 0 0 0 0 0 0 0 0 0 0 127 0" result="hardAlpha"/>
<feOffset dy="4"/>
<feGaussianBlur stdDeviation="2"/>
<feComposite in2="hardAlpha" operator="out"/>
<feColorMatrix type="matrix" values="0 0 0 0 0 0 0 0 0 0 0 0 0 0 0 0 0 0 0.25 0"/>
<feBlend mode="normal" in2="BackgroundImageFix" result="effect1_dropShadow_128_22"/>
<feBlend mode="normal" in="SourceGraphic" in2="effect1_dropShadow_128_22" result="shape"/>
</filter>
</defs>
</svg>
